<svg xmlns="http://www.w3.org/2000/svg" viewBox="0 0 196.2 48.74"><defs><style>.cls-1{fill:#f3481c;fill-rule:evenodd;}</style></defs><title>logo</title><g id="Слой_2" data-name="Слой 2"><g id="Слой_1-2" data-name="Слой 1"><g id="symbol"><path class="cls-1" d="M24.84,0A24.61,24.61,0,0,0,0,24.37,24.61,24.61,0,0,0,24.84,48.74,24.61,24.61,0,0,0,49.68,24.37,24.61,24.61,0,0,0,24.84,0Zm0,6.53a18.27,18.27,0,0,1,15,7.78,8.66,8.66,0,0,0-4.23,1.79,8.69,8.69,0,0,0-10.76,0,8.69,8.69,0,0,0-10.77,0,8.66,8.66,0,0,0-4.27-1.8A18.27,18.27,0,0,1,24.84,6.53Zm0,35.67A18,18,0,0,1,6.66,24.37a17.68,17.68,0,0,1,.19-2.61,2.18,2.18,0,0,1,4,.93v8a3.22,3.22,0,0,0,6.44,0V23.34s0-.1,0-.15v-.33a2.17,2.17,0,0,1,4.34-.09V30.7a3.18,3.18,0,0,0,3,3.15h.47a3.18,3.18,0,0,0,3-3.15V23.34c0-.05,0-.1,0-.16v-.41a2.17,2.17,0,0,1,4.34.09V30.7a3.22,3.22,0,0,0,6.44,0V23.34c0-.05,0-.1,0-.16v-.51s0-.09,0-.14a2.18,2.18,0,0,1,4-.84,17.61,17.61,0,0,1,.2,2.66A18,18,0,0,1,24.84,42.2Z"/></g><g id="text"><path class="cls-1" d="M120.3,18.2a8.15,8.15,0,0,0-2.51,1,6.67,6.67,0,0,0-2.08,2.08,6.25,6.25,0,0,0-.86,3.45v5.79a5.85,5.85,0,0,0,1.34,4.09q1.34,1.47,4.36,1.47h2.83V17.91h-.9A10.25,10.25,0,0,0,120.3,18.2Zm-11.91,2.24a9.66,9.66,0,0,0-3.75-2.3,18.62,18.62,0,0,0-6.31-.89,20.86,20.86,0,0,0-4.69.46A12.81,12.81,0,0,0,90.28,19a12.81,12.81,0,0,0-3.36-1.23,21.06,21.06,0,0,0-4.73-.46,18.62,18.62,0,0,0-6.31.89,9.66,9.66,0,0,0-3.75,2.3,7.32,7.32,0,0,0-1.81,3.15A13.07,13.07,0,0,0,69.85,27v3.55a5.86,5.86,0,0,0,1.34,4.09q1.34,1.47,4.36,1.47h2.83V27q0-.62,0-1.41a3.36,3.36,0,0,1,.39-1.45A2.94,2.94,0,0,1,80,23a5.65,5.65,0,0,1,4.48,0,2.94,2.94,0,0,1,1.14,1.12A3.57,3.57,0,0,1,86,25.61Q86,26.4,86,27v3.55a5.91,5.91,0,0,0,1.32,4.09q1.32,1.47,4.34,1.47h2.83V27q0-.62,0-1.41A3.36,3.36,0,0,1,95,24.16,2.94,2.94,0,0,1,96.1,23a4.54,4.54,0,0,1,2.28-.46,4.45,4.45,0,0,1,2.24.46,3,3,0,0,1,1.14,1.12,3.36,3.36,0,0,1,.39,1.45q0,.79,0,1.41v3.55a5.86,5.86,0,0,0,1.34,4.09q1.34,1.47,4.36,1.47h2.83V27a12.57,12.57,0,0,0-.49-3.43A7.5,7.5,0,0,0,108.39,20.44Zm64.45,8.86a9.49,9.49,0,0,0,3.79-1.81,4.18,4.18,0,0,0,1.61-3,4.92,4.92,0,0,0-.63-2.68,6.91,6.91,0,0,0-2.12-2.3,11.47,11.47,0,0,0-3.5-1.6,17.4,17.4,0,0,0-4.79-.6,18.8,18.8,0,0,0-5.91.83,12.45,12.45,0,0,0-4.13,2.2A8.69,8.69,0,0,0,154,27a8.28,8.28,0,0,0,.71,3.17,8.9,8.9,0,0,0,2.3,3.15,13.12,13.12,0,0,0,4.13,2.43,17,17,0,0,0,6.15,1,19.45,19.45,0,0,0,6.68-1A11.12,11.12,0,0,0,178,33.31a3,3,0,0,0-2.16-1.93,7.41,7.41,0,0,0-3.81.08q-1.37.35-2.51.54a13.59,13.59,0,0,1-2.28.19A7.48,7.48,0,0,1,165,31.9a4.71,4.71,0,0,1-1.53-.77,3.5,3.5,0,0,1-.94-1.12,5.58,5.58,0,0,1-.49-1.29,20.47,20.47,0,0,0,5.64,1A18.09,18.09,0,0,0,172.84,29.3Zm-7.6-4a8.3,8.3,0,0,1-1.38-.33,4.41,4.41,0,0,1-1.1-.46,3.77,3.77,0,0,1,1.71-1.95,5.92,5.92,0,0,1,3-.71,4.08,4.08,0,0,1,2.34.56,1.55,1.55,0,0,1,.81,1.24,1.54,1.54,0,0,1-.82,1.23,4.71,4.71,0,0,1-2.59.56A12.37,12.37,0,0,1,165.24,25.26Zm-18-7.39a8.43,8.43,0,0,0-4.18,1,15.78,15.78,0,0,0-3.36,2.53,15.16,15.16,0,0,0-3.18-2.53,7.89,7.89,0,0,0-4.09-1H126.7l7.7,9.65-7.7,8.61h4.4a8.82,8.82,0,0,0,4.18-1,15.77,15.77,0,0,0,3.4-2.43,14.07,14.07,0,0,0,3.06,2.41,7.67,7.67,0,0,0,3.93,1h5.7l-7.54-9.61,7.58-8.65Zm46.91,0a18.63,18.63,0,0,0-6.31.89,9.81,9.81,0,0,0-3.75,2.28,7.18,7.18,0,0,0-1.81,3.13,13.06,13.06,0,0,0-.47,3.44v8.49h.9a10,10,0,0,0,2.14-.29,8.17,8.17,0,0,0,2.49-1,6.66,6.66,0,0,0,2.08-2.08,6.25,6.25,0,0,0,.86-3.45V26.6a5.91,5.91,0,0,1,.43-2.47,4.24,4.24,0,0,1,1.1-1.49,7,7,0,0,1,1.41-.93,12.55,12.55,0,0,0,1.41-.81,3.76,3.76,0,0,0,1.1-1.12,3.46,3.46,0,0,0,.43-1.87Z"/></g></g></g></svg>