<svg xmlns="http://www.w3.org/2000/svg" viewBox="0 0 209.59 68.57"><defs><style>.cls-1,.cls-2{fill:#f3481c;}.cls-2{fill-rule:evenodd;}</style></defs><title>logo0</title><g id="Слой_2" data-name="Слой 2"><g id="Слой_1-2" data-name="Слой 1"><path class="cls-1" d="M9.71,12.54c-5.23,0-9.5,3.92-9.52,8.76L0,68.57H51.22c5.24,0,9.5-3.92,9.52-8.75l.19-47.28Zm18.92,42a4.59,4.59,0,0,1-4.76,4.38H9.64l.07-17.51H23.93a4.54,4.54,0,0,1,4.73,4.38c0,2.42-1,4.38-3.65,4.38,2.63,0,3.63,2,3.62,4.38M19.2,38.8C14,38.8,9.74,34.88,9.76,30s4.27-8.76,9.51-8.76,9.47,3.92,9.45,8.76S24.45,38.8,19.2,38.8M52,58.94H33l0-8.76c0-4.83,4.28-8.76,9.52-8.76S52,45.35,52,50.18ZM42.56,38.8c-5.24,0-9.47-3.92-9.45-8.76s4.28-8.76,9.52-8.76S52.1,25.21,52.08,30,47.8,38.8,42.56,38.8"/><path class="cls-2" d="M87.32,21.64a8.24,8.24,0,1,1-8.27,8.24,8.25,8.25,0,0,1,8.27-8.24m0-8.56a16.8,16.8,0,1,1-16.86,16.8,16.83,16.83,0,0,1,16.86-16.8"/><path class="cls-2" d="M122,21.64a8.24,8.24,0,1,1-8.27,8.24A8.25,8.25,0,0,1,122,21.64m0-8.56a16.8,16.8,0,1,1-16.86,16.8A16.83,16.83,0,0,1,122,13.08"/><path class="cls-2" d="M157.79,21.69a8.19,8.19,0,1,1-8.25,8.19,8.22,8.22,0,0,1,8.25-8.19m0-8.61a16.8,16.8,0,1,1-16.86,16.8V0h9.52V14.75a16.86,16.86,0,0,1,7.34-1.67"/><path class="cls-2" d="M192.73,38.06A8.19,8.19,0,1,1,201,29.87a8.22,8.22,0,0,1-8.25,8.19m0,8.61a16.8,16.8,0,1,1,16.86-16.8v17h-9.52V45a16.85,16.85,0,0,1-7.34,1.67"/><path class="cls-1" d="M134.52,68.57V59.74h-3.37V57.49h9.18v2.24H137v8.83Zm-13.19,0V57.49h8.36v2.17h-5.94v2.25H129v2.17h-5.22v2.33h6v2.17Zm-11.56,0V57.49h2.44v4.84l4.5-4.84h2.94l-4.51,4.7,4.72,6.38h-2.93l-3.44-4.72-1.28,1.33v3.39Zm-9-5.7h2.47a2,2,0,0,0,1.38-.43,1.48,1.48,0,0,0,.49-1.16,1.43,1.43,0,0,0-.51-1.18,2.2,2.2,0,0,0-1.41-.4h-2.42Zm-2.44,5.7V57.49h5.07a4.37,4.37,0,0,1,3.23,1.12,3.47,3.47,0,0,1,1,2.57,3.37,3.37,0,0,1-2.38,3.43l2.71,4h-2.85L102.65,65h-1.88v3.54Zm-9.09-4.64h2.95l-1.48-3.59Zm-4.37,4.64,4.75-11.16h2.25l4.75,11.16H94.07l-1-2.49H88.37l-1,2.49Zm-12.79,0V57.49h2.63l2.91,4.68,2.91-4.68h2.63V68.57H80.74V61.34l-3.12,4.73h-.06l-3.09-4.69v7.19Z"/></g></g></svg>