<svg xmlns="http://www.w3.org/2000/svg" viewBox="0 0 120 32.08"><defs><style>.cls-1{opacity:0.4;}.cls-2{fill:#333;}.cls-3{fill:#fff;}</style></defs><title>edit00</title><g id="Слой_2" data-name="Слой 2"><g id="Слой_1-2" data-name="Слой 1"><g class="cls-1"><rect class="cls-2" width="120" height="32.08" rx="5.11" ry="5.11"/></g><path class="cls-3" d="M30.27,7.74a3.55,3.55,0,0,0-2.61-1.08H15.37a3.7,3.7,0,0,0-3.69,3.69v12.3a3.7,3.7,0,0,0,3.69,3.69h12.3a3.7,3.7,0,0,0,3.69-3.69V10.35a3.55,3.55,0,0,0-1.08-2.61ZM18.65,23.05H15V19.36l7-7,3.69,3.69Zm9-9-1.18,1.18-3.69-3.69,1.18-1.18a1.24,1.24,0,0,1,1.74,0l1.95,1.95a1.24,1.24,0,0,1,0,1.74Zm0,0"/><path class="cls-3" d="M16.19,19.88v.72h1.23v1.23h.72l.67-.67-1.95-1.95Zm0,0"/><path class="cls-3" d="M18,18q-.22.22,0,.38c.11.12.24.11.38,0l3.73-3.73q.22-.22,0-.38t-.38,0Zm0,0"/><path class="cls-3" d="M42.14,11.08v4c0,1.5,0,2.73-.11,4h0c.48-1,1.06-2,1.75-3.12l3.05-4.86h1.22v9.44H46.94v-4c0-1.53,0-2.65.11-3.84h0a29,29,0,0,1-1.75,3.18l-3,4.69H41V11.08Z"/><path class="cls-3" d="M50.8,16.58h.59c1,0,1.74-.48,1.74-1.11s-.55-1-1.32-1a3.27,3.27,0,0,0-1.64.48l-.31-.76a4.3,4.3,0,0,1,2.25-.62c1,0,2.3.46,2.3,1.78a1.73,1.73,0,0,1-1.53,1.54v0a1.8,1.8,0,0,1,1.85,1.69c0,1.47-1.5,2-2.93,2a4.64,4.64,0,0,1-2.2-.55l.32-.83a3.9,3.9,0,0,0,1.79.46c1,0,1.67-.49,1.67-1.16,0-.91-1-1.16-2-1.16H50.8Z"/><path class="cls-3" d="M56.34,13.74h1.51l1.23,3.42c.17.5.46,1.33.62,1.86h0c.15-.5.53-1.58.8-2.33l1.09-3h1.53l.48,6.78H62.45l-.15-3.24c0-.73-.1-1.6-.13-2.42h0c-.18.62-.36,1.16-.74,2.2l-1.3,3.42h-.9L58,17.13c-.21-.64-.5-1.62-.67-2.26h-.06c0,.8-.07,1.69-.11,2.44L57,20.52H55.83Z"/><path class="cls-3" d="M65.9,17.35a2.17,2.17,0,0,0,2.33,2.35,4.45,4.45,0,0,0,1.88-.35l.21.88a5.48,5.48,0,0,1-2.25.42,3.15,3.15,0,0,1-3.33-3.42c0-2,1.21-3.66,3.18-3.66,2.21,0,2.8,1.95,2.8,3.19a4.73,4.73,0,0,1,0,.57Zm3.61-.88a1.76,1.76,0,0,0-1.71-2,2,2,0,0,0-1.89,2Z"/><path class="cls-3" d="M73.42,13.74v2.73h3.22V13.74h1.22v6.78H76.64V17.45H73.42v3.07H72.2V13.74Z"/><path class="cls-3" d="M81,13.74v2.86c0,1.08,0,1.75-.07,2.72h0c.41-.83.64-1.3,1.09-2.09l2.12-3.5h1.44v6.78H84.45V17.65c0-1.11,0-1.68.08-2.77h0c-.43.87-.73,1.41-1.12,2.1C82.73,18,82,19.33,81.26,20.52H79.84V13.74Z"/><path class="cls-3" d="M92.17,13.74v1H90.05v5.8H88.83v-5.8H86.72v-1Z"/><path class="cls-3" d="M94.43,13.74V16A6.86,6.86,0,0,1,95.55,16c1.53,0,3.14.48,3.14,2.28A1.92,1.92,0,0,1,98,19.8a4.71,4.71,0,0,1-2.94.78,16.9,16.9,0,0,1-1.82-.1V13.74Zm0,5.93a7.16,7.16,0,0,0,.91.06c.92,0,2.12-.31,2.12-1.44s-1.23-1.43-2.14-1.43a5.79,5.79,0,0,0-.88.07Z"/></g></g></svg>