<?xml version="1.0" encoding="iso-8859-1"?>
<!-- Generator: Adobe Illustrator 19.0.0, SVG Export Plug-In . SVG Version: 6.00 Build 0)  -->
<svg xmlns="http://www.w3.org/2000/svg" xmlns:xlink="http://www.w3.org/1999/xlink" version="1.1" id="Capa_1" x="0px" y="0px" viewBox="0 0 496 496" style="enable-background:new 0 0 496 496;" xml:space="preserve" width="512px" height="512px">
<g>
	<g>
		<g>
			<path d="M248,0C111.256,0,0,111.256,0,248s111.256,248,248,248s248-111.256,248-248S384.744,0,248,0z M248,480     C120.072,480,16,375.928,16,248S120.072,16,248,16s232,104.072,232,232S375.928,480,248,480z" fill="#595959"/>
			<path d="M248,160c58.32,0,104-28.112,104-64s-45.68-64-104-64S144,60.112,144,96S189.68,160,248,160z M248,48     c47.696,0,88,21.984,88,48s-40.304,48-88,48s-88-21.984-88-48S200.304,48,248,48z" fill="#595959"/>
			<path d="M96,144c-35.888,0-64,45.68-64,104s28.112,104,64,104s64-45.68,64-104S131.888,144,96,144z M96,336     c-26.016,0-48-40.304-48-88s21.984-88,48-88s48,40.304,48,88S122.016,336,96,336z" fill="#595959"/>
			<path d="M400,144c-35.888,0-64,45.68-64,104s28.112,104,64,104s64-45.68,64-104S435.888,144,400,144z M400,336     c-26.016,0-48-40.304-48-88s21.984-88,48-88s48,40.304,48,88S426.016,336,400,336z" fill="#595959"/>
			<path d="M248,336c-58.32,0-104,28.112-104,64s45.68,64,104,64s104-28.112,104-64S306.32,336,248,336z M248,448     c-47.696,0-88-21.984-88-48s40.304-48,88-48s88,21.984,88,48S295.696,448,248,448z" fill="#595959"/>
			<path d="M248,288c35.888,0,64-17.568,64-40s-28.112-40-64-40s-64,17.568-64,40S212.112,288,248,288z M248,224     c28.288,0,48,12.648,48,24s-19.712,24-48,24c-28.288,0-48-12.648-48-24S219.712,224,248,224z" fill="#595959"/>
			<rect x="304" y="304" width="16" height="16" fill="#595959"/>
			<rect x="304" y="176" width="16" height="16" fill="#595959"/>
			<rect x="176" y="304" width="16" height="16" fill="#595959"/>
			<rect x="176" y="176" width="16" height="16" fill="#595959"/>
		</g>
	</g>
</g>
<g>
</g>
<g>
</g>
<g>
</g>
<g>
</g>
<g>
</g>
<g>
</g>
<g>
</g>
<g>
</g>
<g>
</g>
<g>
</g>
<g>
</g>
<g>
</g>
<g>
</g>
<g>
</g>
<g>
</g>
</svg>
