<?xml version="1.0" encoding="iso-8859-1"?>
<!-- Generator: Adobe Illustrator 18.1.1, SVG Export Plug-In . SVG Version: 6.00 Build 0)  -->
<svg xmlns="http://www.w3.org/2000/svg" xmlns:xlink="http://www.w3.org/1999/xlink" version="1.1" id="Capa_1" x="0px" y="0px" viewBox="0 0 198.576 198.576" style="enable-background:new 0 0 198.576 198.576;" xml:space="preserve" width="512px" height="512px">
<g>
	<g>
		<path d="M178.492,25.125c-10.805,0-19.598,8.793-19.598,19.605c0,6.059,2.834,11.778,7.623,15.486v14.992    H32.07V60.216c4.785-3.708,7.619-9.427,7.619-15.486c0-10.812-8.79-19.605-19.594-19.605C9.284,25.125,0.49,33.919,0.49,44.73    c0,6.059,2.834,11.778,7.619,15.486v113.238h23.957v-15.783h134.447v15.783h23.946V60.216c4.785-3.708,7.619-9.427,7.619-15.486    C198.082,33.915,189.293,25.125,178.492,25.125z M166.517,78.475v11.306H32.07V78.475H166.517z M32.07,93.045H48.4v47.341H32.07    V93.045z M51.664,93.045h21.77v47.341h-21.77V93.045z M76.698,93.045H97.66v47.341H76.698V93.045z M100.927,93.045h21.77v47.341    h-21.77V93.045z M125.961,93.045h19.326v47.341h-19.326V93.045z M148.555,93.045h17.966v47.341h-17.966V93.045z M28.806,58.552    v111.635H11.377V58.552l-0.687-0.494c-4.334-3.06-6.932-8.052-6.932-13.328c0-9.008,7.333-16.33,16.337-16.33    c8.997,0,16.327,7.322,16.327,16.33c0,5.279-2.588,10.268-6.932,13.328L28.806,58.552z M32.07,154.404V143.65h134.447v10.754    H32.07z M187.886,58.058l-0.687,0.494v111.635h-17.415V58.552l-0.698-0.494c-4.334-3.06-6.921-8.052-6.921-13.328    c0-9.008,7.322-16.33,16.33-16.33c9.004,0,16.327,7.322,16.327,16.33C194.815,50.005,192.231,54.998,187.886,58.058z" fill="#595959"/>
		<path d="M190.957,173.945h-24.934v-15.783H32.564v15.783H7.619V60.463C2.845,56.662,0,50.811,0,44.73    c0-11.08,9.019-20.099,20.099-20.099c11.069,0,20.085,9.019,20.085,20.099c0,6.08-2.845,11.932-7.619,15.733v14.251h133.463    V60.463c-4.778-3.801-7.623-9.652-7.623-15.733c0-11.08,9.008-20.099,20.088-20.099s20.085,9.019,20.085,20.099    c0,6.08-2.845,11.932-7.619,15.733V173.945z M167.011,172.96h22.962V59.969l0.193-0.147c4.653-3.604,7.426-9.244,7.426-15.096    c0-10.536-8.568-19.1-19.1-19.1c-10.536,0-19.104,8.564-19.104,19.1c0,5.851,2.784,11.492,7.426,15.096l0.197,0.147v15.733H31.58    V59.969l0.183-0.147c4.653-3.604,7.437-9.244,7.437-15.096c0-10.536-8.575-19.1-19.1-19.1c-10.536,0-19.111,8.564-19.111,19.1    c0,5.851,2.784,11.492,7.437,15.096l0.186,0.147V172.96h22.973v-15.783h135.431v15.783H167.011z M187.689,170.681H169.29V58.806    l-0.483-0.336c-4.466-3.164-7.136-8.299-7.136-13.739c0-9.284,7.533-16.831,16.821-16.831c9.273,0,16.821,7.548,16.821,16.831    c0,5.443-2.67,10.579-7.14,13.739l-0.483,0.336C187.689,58.806,187.689,170.681,187.689,170.681z M170.275,169.697h16.43V58.294    l0.895-0.637c4.212-2.967,6.725-7.805,6.725-12.927c0-8.74-7.104-15.836-15.833-15.836s-15.836,7.097-15.836,15.836    c0,5.125,2.516,9.96,6.714,12.927l0.905,0.637V169.697z M29.296,170.681H10.883V58.806L10.4,58.469    C5.934,55.306,3.264,50.17,3.264,44.73c0-9.284,7.548-16.831,16.831-16.831c9.273,0,16.821,7.548,16.821,16.831    c0,5.443-2.67,10.579-7.14,13.739l-0.483,0.336v111.875H29.296z M11.871,169.697h16.441V58.294l0.895-0.637    c4.212-2.967,6.725-7.805,6.725-12.927c0-8.74-7.104-15.836-15.833-15.836c-8.74,0-15.847,7.097-15.847,15.836    c0,5.114,2.516,9.949,6.725,12.927l0.895,0.637C11.871,58.294,11.871,169.697,11.871,169.697z M167.011,154.898H31.58v-11.739    h135.431V154.898z M32.564,153.914h133.462v-9.76H32.564V153.914z M167.011,140.89H148.05V92.544h18.961V140.89z M149.048,139.895    h16.974V93.539h-16.974V139.895z M145.781,140.89h-20.314V92.544h20.314V140.89z M126.455,139.895h18.342V93.539h-18.342V139.895z     M123.191,140.89h-22.758V92.544h22.758V140.89z M101.421,139.895h20.786V93.539h-20.786V139.895z M98.154,140.89H76.208V92.544    h21.946V140.89z M77.196,139.895h19.963V93.539H77.196V139.895z M73.928,140.89H51.17V92.544h22.758    C73.928,92.544,73.928,140.89,73.928,140.89z M52.158,139.895h20.786V93.539H52.158V139.895z M48.891,140.89H31.576V92.544h17.314    V140.89z M32.564,139.895h15.343V93.539H32.564C32.564,93.539,32.564,139.895,32.564,139.895z M167.011,90.271H31.58V77.978    h135.431V90.271z M32.564,89.287h133.462V78.966H32.564V89.287z" fill="#595959"/>
	</g>
</g>
<g>
</g>
<g>
</g>
<g>
</g>
<g>
</g>
<g>
</g>
<g>
</g>
<g>
</g>
<g>
</g>
<g>
</g>
<g>
</g>
<g>
</g>
<g>
</g>
<g>
</g>
<g>
</g>
<g>
</g>
</svg>
