<?xml version="1.0" encoding="iso-8859-1"?>
<!-- Generator: Adobe Illustrator 17.1.0, SVG Export Plug-In . SVG Version: 6.00 Build 0)  -->
<!DOCTYPE svg PUBLIC "-//W3C//DTD SVG 1.1//EN" "http://www.w3.org/Graphics/SVG/1.1/DTD/svg11.dtd">
<svg xmlns="http://www.w3.org/2000/svg" xmlns:xlink="http://www.w3.org/1999/xlink" version="1.1" id="Capa_1" x="0px" y="0px" viewBox="0 0 396.003 396.003" style="enable-background:new 0 0 396.003 396.003;" xml:space="preserve" width="512px" height="512px">
<g>
	<path d="M244.385,214.913c-3.038,0-5.5,2.462-5.5,5.5c0,20.679-15.434,37.81-35.384,40.506v-65.063h7.892c0.003,0,0.006,0,0.009,0   c3.034-0.005,5.491-2.465,5.491-5.5c0-3.038-2.462-5.5-5.5-5.5h-7.892v-20.097h22.606c3.038,0,5.5-2.462,5.5-5.5   c0-3.038-2.462-5.5-5.5-5.5h-20.2c2.19-2.088,3.562-5.027,3.562-8.291c0-6.332-5.138-11.466-11.468-11.466   c-6.33,0-11.468,5.134-11.468,11.466c0,3.264,1.372,6.203,3.562,8.291h-20.201c-3.038,0-5.5,2.462-5.5,5.5   c0,3.038,2.462,5.5,5.5,5.5h22.607v20.097h-7.897c-3.038,0-5.5,2.462-5.5,5.5c0,3.038,2.462,5.5,5.5,5.5h7.897v65.063   c-19.951-2.696-35.385-19.828-35.385-40.506c0-3.038-2.462-5.5-5.5-5.5s-5.5,2.462-5.5,5.5c0,28.61,23.275,51.887,51.885,51.887   c28.609,0,51.884-23.276,51.884-51.887C249.885,217.375,247.423,214.913,244.385,214.913z" fill="#595959"/>
	<path d="M274.107,0H121.896C58.385,0,6.715,51.67,6.715,115.181c0,1.83,0.91,3.539,2.428,4.562l52.413,35.298v148.165   c0,51.168,41.628,92.797,92.796,92.797h43.649h43.648h0.001h0.001c51.168,0,92.796-41.629,92.796-92.797V155.041l52.413-35.298   c1.518-1.022,2.428-2.732,2.428-4.562C389.288,51.67,337.618,0,274.107,0z M268.395,11c-2.816,36.371-33.312,65.105-70.394,65.105   S130.424,47.371,127.608,11H268.395z M72.779,308.929c40.547,2.819,73.032,35.304,75.851,75.852   C108.083,381.961,75.597,349.476,72.779,308.929z M247.373,384.78c2.818-40.547,35.304-73.033,75.852-75.852   C320.406,349.477,287.92,381.962,247.373,384.78z M325.875,147.553c-1.518,1.022-2.428,2.732-2.428,4.562v145.77   c-46.797,2.751-84.388,40.32-87.136,87.118h-38.31h-38.311c-2.748-46.797-40.338-84.367-87.135-87.118v-145.77   c0-1.83-0.91-3.54-2.428-4.562l-52.374-35.272c1.495-54.348,44.817-98.436,98.857-101.148   c2.906,42.377,38.287,75.973,81.389,75.973s78.483-33.596,81.389-75.973c54.04,2.713,97.362,46.801,98.857,101.148L325.875,147.553   z" fill="#595959"/>
</g>
<g>
</g>
<g>
</g>
<g>
</g>
<g>
</g>
<g>
</g>
<g>
</g>
<g>
</g>
<g>
</g>
<g>
</g>
<g>
</g>
<g>
</g>
<g>
</g>
<g>
</g>
<g>
</g>
<g>
</g>
</svg>
