<?xml version="1.0" encoding="iso-8859-1"?>
<!-- Generator: Adobe Illustrator 17.1.0, SVG Export Plug-In . SVG Version: 6.00 Build 0)  -->
<!DOCTYPE svg PUBLIC "-//W3C//DTD SVG 1.1//EN" "http://www.w3.org/Graphics/SVG/1.1/DTD/svg11.dtd">
<svg xmlns="http://www.w3.org/2000/svg" xmlns:xlink="http://www.w3.org/1999/xlink" version="1.1" id="Capa_1" x="0px" y="0px" viewBox="0 0 210.778 210.778" style="enable-background:new 0 0 210.778 210.778;" xml:space="preserve" width="512px" height="512px">
<path d="M104.7,204.099c-4.361,0-8.243-2.149-10.468-5.408c-2.263,2.258-5.458,3.628-8.924,3.628c-4.772,0-8.944-2.612-10.974-6.4  c-2.116,1.56-4.753,2.443-7.554,2.443c-5.39,0-9.98-3.289-11.633-7.851c-1.929,1.144-4.188,1.782-6.538,1.782  c-6.413,0-11.694-4.656-12.243-10.572c-1.151,0.332-2.36,0.504-3.593,0.504c-6.776,0-12.289-5.198-12.289-11.588  c0-0.69,0.064-1.372,0.191-2.04c-0.233,0.013-0.466,0.019-0.701,0.019c-6.776,0-12.29-5.198-12.29-11.588  c0-1.983,0.55-3.9,1.539-5.586C3.926,150.154,0,145.61,0,140.219c0-6.39,5.513-11.588,12.289-11.588  c0.282,0,0.558,0.016,0.834,0.034c25.837-0.325,44.581-20.28,44.581-47.485v-36c0-0.229,0.032-0.458,0.094-0.679l10.158-36  c0.304-1.077,1.287-1.821,2.406-1.821h13.227c1.381,0,2.5,1.119,2.5,2.5c0,8.547,6.011,15.5,13.399,15.5h10.499  c7.388,0,13.399-6.953,13.399-15.5c0-1.381,1.119-2.5,2.5-2.5h13.228c1.119,0,2.102,0.744,2.406,1.821l10.158,36  c0.062,0.221,0.094,0.449,0.094,0.679v36c0,27.523,19.008,47.5,45.197,47.5c0.098,0,0.195,0.006,0.29,0.017  c0.43-0.044,0.837-0.065,1.23-0.065c6.776,0,12.29,5.198,12.29,11.588c0,5.387-3.918,9.927-9.208,11.219  c0.978,1.673,1.523,3.585,1.523,5.59c0,6.39-5.513,11.588-12.289,11.588c-0.235,0-0.469-0.006-0.701-0.019  c0.126,0.668,0.191,1.35,0.191,2.04c0,6.39-5.513,11.588-12.289,11.588c-1.233,0-2.441-0.172-3.593-0.504  c-0.548,5.916-5.829,10.572-12.242,10.572c-2.35,0-4.609-0.639-6.538-1.782c-1.653,4.562-6.244,7.851-11.634,7.851  c-2.8,0-5.438-0.884-7.553-2.443c-2.03,3.788-6.202,6.4-10.974,6.4c-4.134,0-7.587-1.229-9.865-3.328  C113.331,202.085,109.336,204.099,104.7,204.099z M94.781,190.478c0.082,0,0.164,0.004,0.247,0.012  c1.212,0.12,2.162,1.096,2.248,2.311c0.252,3.532,3.513,6.299,7.423,6.299c3.81,0,7.921-2.367,7.921-6.192  c0-1.381,1.129-2.595,2.51-2.595c0.132,0,0.263,0.012,0.391,0.034c1.138,0.157,2.043,1.062,2.134,2.246  c0.251,3.265,4.106,4.727,7.814,4.727c3.969,0,7.236-2.92,7.283-6.51c0.015-1.138,0.797-2.122,1.902-2.395  c1.105-0.271,2.255,0.236,2.796,1.238c1.238,2.288,3.746,3.709,6.545,3.709c4.02,0,7.29-2.955,7.29-6.588  c0-0.37-0.04-0.751-0.122-1.167c-0.235-1.191,0.42-2.38,1.553-2.817c1.132-0.437,2.417,0.004,3.042,1.046  c1.282,2.133,3.737,3.458,6.409,3.458c4.019,0,7.289-2.956,7.289-6.589c0-0.871-0.186-1.718-0.554-2.518  c-0.496-1.078-0.165-2.356,0.792-3.06c0.957-0.702,2.276-0.633,3.157,0.161c1.38,1.249,3.209,1.937,5.151,1.937  c4.019,0,7.289-2.955,7.289-6.588c0-1.634-0.678-3.206-1.909-4.428c-0.912-0.904-0.99-2.354-0.18-3.351  c0.811-0.997,2.245-1.217,3.317-0.511c1.256,0.829,2.737,1.268,4.281,1.268c4.019,0,7.289-2.955,7.289-6.588  c0-2.794-1.967-5.291-4.894-6.216c-0.664-0.209-1.21-0.687-1.508-1.316c-0.297-0.629-0.318-1.354-0.059-2  c0-0.001,0.046-0.118,0.046-0.118c0.254-0.646,0.766-1.158,1.412-1.412c0.646-0.253,1.369-0.229,1.996,0.073  c1.064,0.51,2.208,0.769,3.402,0.769c4.02,0,7.29-2.955,7.29-6.588s-3.27-6.588-7.29-6.588c-0.341,0-0.72,0.03-1.156,0.094  c-0.323,0.045-0.649,0.029-0.959-0.048c-28.32-0.312-49.603-22.775-49.603-52.497V45.525l-9.55-33.846h-8.972  c-1.11,10.129-8.876,18-18.263,18H99.488c-9.386,0-17.153-7.871-18.263-18h-8.971l-9.55,33.846V81.18  c0,14.729-5.15,28.133-14.501,37.739c-9.117,9.366-21.591,14.604-35.125,14.747c-0.063,0.002-0.134-0.001-0.201-0.006  c-0.195-0.014-0.389-0.029-0.588-0.029c-4.019,0-7.289,2.955-7.289,6.588s3.27,6.588,7.289,6.588c0.861,0,1.721-0.144,2.557-0.428  c1.25-0.429,2.616,0.196,3.116,1.418c0.512,1.245-0.007,2.787-1.234,3.343c-2.495,1.128-4.044,3.384-4.044,5.888  c0,3.633,3.27,6.588,7.29,6.588c1.544,0,3.025-0.438,4.281-1.268c1.073-0.706,2.507-0.486,3.317,0.511s0.732,2.446-0.18,3.352  c-1.231,1.221-1.909,2.793-1.909,4.427c0,3.633,3.27,6.588,7.289,6.588c1.942,0,3.771-0.688,5.151-1.936  c0.881-0.796,2.2-0.863,3.156-0.162c0.957,0.702,1.288,1.98,0.793,3.06c-0.368,0.8-0.554,1.647-0.554,2.518  c0,3.633,3.27,6.589,7.29,6.589c2.671,0,5.127-1.325,6.408-3.458c0.625-1.042,1.907-1.482,3.042-1.046  c1.133,0.438,1.789,1.626,1.553,2.817c-0.082,0.414-0.122,0.796-0.122,1.167c0,3.633,3.27,6.588,7.289,6.588  c2.8,0,5.308-1.421,6.545-3.709c0.542-1.001,1.692-1.509,2.796-1.238c1.105,0.272,1.888,1.257,1.903,2.395  c0.047,3.59,3.314,6.51,7.283,6.51c3.35,0,6.255-2.058,7.064-5.003C92.672,191.222,93.667,190.478,94.781,190.478z M104.737,93.852  c-0.305,0-0.609-0.056-0.898-0.167c-1.03-0.396-25.241-9.936-25.241-28.822c0-11.4,7.896-16.503,15.72-16.503  c4.641,0,8.289,2.829,10.419,5.022c2.131-2.193,5.778-5.022,10.419-5.022c7.825,0,15.72,5.103,15.72,16.503  c0,18.887-24.211,28.426-25.241,28.822C105.347,93.796,105.042,93.852,104.737,93.852z M94.318,53.359  c-2.515,0-10.72,0.829-10.72,11.503c0,13.674,16.997,21.962,21.138,23.777c4.134-1.819,21.142-10.138,21.142-23.777  c0-10.674-8.206-11.503-10.72-11.503c-4.717,0-8.305,5.253-8.34,5.307c-0.467,0.692-1.241,1.154-2.085,1.108  c-0.835-0.003-1.616-0.419-2.078-1.115C102.623,58.612,99.035,53.359,94.318,53.359z" fill="#595959"/>
<g>
</g>
<g>
</g>
<g>
</g>
<g>
</g>
<g>
</g>
<g>
</g>
<g>
</g>
<g>
</g>
<g>
</g>
<g>
</g>
<g>
</g>
<g>
</g>
<g>
</g>
<g>
</g>
<g>
</g>
</svg>
