<?xml version="1.0" encoding="iso-8859-1"?>
<!-- Generator: Adobe Illustrator 19.0.0, SVG Export Plug-In . SVG Version: 6.00 Build 0)  -->
<svg xmlns="http://www.w3.org/2000/svg" xmlns:xlink="http://www.w3.org/1999/xlink" version="1.1" id="Layer_1" x="0px" y="0px" viewBox="0 0 512 512" style="enable-background:new 0 0 512 512;" xml:space="preserve" width="512px" height="512px">
<g transform="translate(1 1)">
	<g>
		<path d="M457.596,359.689c30.698-38.077,49.138-86.397,49.138-138.822c0-75.203-37.93-141.968-95.594-182.141    c-0.488-0.49-1.044-0.94-1.686-1.326c-0.316-0.189-0.637-0.354-0.96-0.506c-27.191-18.368-58.625-30.866-92.448-35.677    c-0.526-0.121-1.053-0.195-1.576-0.222C304.779-0.312,294.9-1,284.867-1C222.096-1,165.2,25.422,124.741,67.689    c-1.138,0.702-2.049,1.675-2.685,2.868C85.45,110.16,63,163.015,63,220.867c0,48.593,15.845,93.658,42.606,130.311    C104.44,373.959,86.117,391.533,63,391.533c-33.28,0-59.733,26.453-59.733,59.733C3.267,484.547,29.72,511,63,511    c33.28,0,59.733-26.453,59.733-59.733c0-5.12-3.413-8.533-8.533-8.533c-5.12,0-8.533,3.413-8.533,8.533    c0,23.893-18.773,42.667-42.667,42.667c-23.893,0-42.667-18.773-42.667-42.667c0-23.893,18.773-42.667,42.667-42.667    c26.424,0,48.528-16.684,56.521-40.213c40.707,45.55,99.823,74.347,165.346,74.347c67.598,0,128.376-30.649,169.156-78.724    C455.717,363.084,456.956,361.594,457.596,359.689z M83.049,255.611c-1.952-11.301-2.982-22.908-2.982-34.744    c0-10.689,0.834-21.193,2.433-31.452c5.53,8.065,13.535,16.109,24.021,23.772c49.493,36.693,139.093,64.853,239.787,64.853    c45.436,0,93.267-5.621,139.63-18.366c-6.389,32.962-20.743,63.169-40.969,88.518C243.649,356.078,131.549,327.149,83.049,255.611    z M488.601,241.757c-0.79,0.001-1.583,0.137-2.348,0.443c-93.867,26.453-271.36,31.573-369.493-42.667    c-17.067-12.8-26.453-26.453-26.453-36.693c0-1.346-0.242-2.571-0.683-3.65c7.695-24.184,19.784-46.453,35.316-65.866    c5.165,12.359,15.292,24.611,29.443,35.812c0.761,0.959,1.749,1.708,2.915,2.219c21.703,16.054,51.815,29.681,88.295,38.531    c1.382,0.953,3.126,1.487,5.14,1.487c0.398,0,0.791-0.012,1.187-0.016c26.78,5.971,56.786,9.403,89.266,9.403    c42.667,0,90.453-5.973,139.093-20.48c0.057-0.011,0.111-0.032,0.168-0.045c5.988,19.18,9.219,39.547,9.219,60.632    C489.667,227.916,489.305,234.886,488.601,241.757z M392.834,47.064c-35.474,53.412-79.032,106.094-140.116,107.215    c-25.804-5.976-48.24-14.458-66.459-24.542c58.609-11.296,99.689-61.111,132.352-110.854    C345.448,23.38,370.556,33.141,392.834,47.064z M474.766,144.415c-64.627,18.298-124.87,22.442-176.196,17.329    c44.981-18.671,79.545-61.773,108.499-104.949C436.938,79.132,460.562,109.408,474.766,144.415z M284.867,16.067    c4.88,0,9.719,0.184,14.516,0.525c-45.479,67.226-86.486,97.293-135.364,98.425c-15.163-12.053-24.315-24.708-25.727-36.809    C175.558,39.934,227.556,16.067,284.867,16.067z M93.727,294.187c53.719,49.429,146.984,72.599,292.686,72.599    c14.058,0,28.129-0.405,42.738-0.933c-37.091,36.915-88.142,59.813-144.285,59.813    C198.031,425.667,123.379,370.889,93.727,294.187z" fill="#595959"/>
	</g>
</g>
<g>
</g>
<g>
</g>
<g>
</g>
<g>
</g>
<g>
</g>
<g>
</g>
<g>
</g>
<g>
</g>
<g>
</g>
<g>
</g>
<g>
</g>
<g>
</g>
<g>
</g>
<g>
</g>
<g>
</g>
</svg>
