<?xml version="1.0" encoding="iso-8859-1"?>
<!-- Generator: Adobe Illustrator 19.0.0, SVG Export Plug-In . SVG Version: 6.00 Build 0)  -->
<svg xmlns="http://www.w3.org/2000/svg" xmlns:xlink="http://www.w3.org/1999/xlink" version="1.1" id="Capa_1" x="0px" y="0px" viewBox="0 0 57 57" style="enable-background:new 0 0 57 57;" xml:space="preserve" width="512px" height="512px">
<g>
	<path d="M57,28.5c0-3.737-2.946-6.79-6.636-6.982c-0.4-1.219-0.899-2.395-1.492-3.514c1.178-1.292,1.83-2.947,1.83-4.708   c0-1.87-0.728-3.627-2.05-4.949s-3.08-2.051-4.95-2.051c-1.842,0-3.573,0.71-4.889,1.995c-0.934-0.457-1.877-0.844-2.821-1.157   C35.994,7.09,36,7.046,36,7c0-3.859-3.14-7-7-7s-7,3.141-7,7c0,0.046,0.006,0.091,0.007,0.137c-1.031,0.34-2.048,0.761-3.042,1.26   c-0.117-0.137-0.235-0.274-0.364-0.403c-1.322-1.322-3.08-2.051-4.95-2.051s-3.627,0.729-4.95,2.051s-2.05,3.079-2.05,4.949   s0.728,3.628,2.05,4.95c0.107,0.107,0.221,0.202,0.333,0.3c-0.562,1.083-1.032,2.199-1.406,3.338C7.421,21.513,7.212,21.5,7,21.5   c-3.86,0-7,3.141-7,7s3.14,7,7,7c0.209,0,0.414-0.013,0.619-0.031c0.325,1,0.714,1.967,1.164,2.891   c-0.148,0.125-0.295,0.253-0.435,0.393c-1.322,1.322-2.05,3.08-2.05,4.95s0.728,3.627,2.05,4.949s3.08,2.051,4.95,2.051   s3.627-0.729,4.95-2.051c0.09-0.09,0.169-0.187,0.254-0.281c1.128,0.597,2.302,1.095,3.506,1.49C22.006,49.908,22,49.953,22,50   c0,3.859,3.14,7,7,7s7-3.141,7-7c0-0.046-0.006-0.091-0.007-0.137c1.148-0.377,2.255-0.84,3.311-1.385   c1.338,1.24,3.043,1.868,4.752,1.868c1.793,0,3.585-0.683,4.95-2.047c1.322-1.322,2.05-3.079,2.05-4.949   c0-1.817-0.693-3.525-1.945-4.834c0.501-1,0.921-2.015,1.257-3.034C54.056,35.288,57,32.235,57,28.5z M38.753,12.8   c0.006-0.058,0.009-0.116,0.017-0.174c0.039-0.274,0.098-0.545,0.183-0.812c0.003-0.009,0.005-0.018,0.008-0.027   c0.187-0.574,0.48-1.124,0.883-1.621l0.338-0.416c0.943-0.936,2.192-1.453,3.521-1.453c1.335,0,2.591,0.521,3.536,1.465   s1.464,2.2,1.464,3.535c0,1.303-0.502,2.525-1.402,3.46l-0.33,0.288c-1.233,1.076-2.862,1.443-4.36,1.118   c-0.007-0.002-0.015-0.005-0.022-0.007c-0.288-0.064-0.57-0.152-0.844-0.267c-0.082-0.035-0.158-0.086-0.238-0.125   c-0.199-0.096-0.398-0.191-0.584-0.315c-0.266-0.178-0.52-0.382-0.755-0.617c-0.235-0.235-0.439-0.49-0.617-0.756   c-0.064-0.096-0.109-0.201-0.166-0.301c-0.099-0.174-0.201-0.347-0.278-0.529c-0.059-0.141-0.098-0.288-0.143-0.433   c-0.046-0.146-0.097-0.29-0.13-0.439c-0.04-0.185-0.06-0.372-0.078-0.56c-0.011-0.107-0.027-0.214-0.031-0.322   C38.716,13.262,38.728,13.031,38.753,12.8z M29,2c2.757,0,5,2.243,5,5c0,0.278-0.038,0.546-0.082,0.812   c-0.031,0.19-0.08,0.373-0.132,0.554c-0.034,0.12-0.068,0.24-0.111,0.355c-0.065,0.175-0.141,0.343-0.224,0.508   c-0.055,0.108-0.111,0.215-0.173,0.318c-0.096,0.16-0.199,0.314-0.312,0.461c-0.07,0.093-0.145,0.181-0.222,0.269   c-0.124,0.141-0.253,0.278-0.391,0.404c-0.085,0.078-0.176,0.148-0.266,0.22c-0.146,0.116-0.294,0.229-0.452,0.329   c-0.106,0.066-0.219,0.121-0.33,0.179c-0.156,0.082-0.311,0.166-0.475,0.232c-0.149,0.059-0.307,0.099-0.463,0.144   c-0.139,0.04-0.274,0.09-0.417,0.118C29.642,11.964,29.325,12,29,12s-0.642-0.036-0.95-0.096c-0.143-0.028-0.279-0.078-0.417-0.118   c-0.156-0.045-0.314-0.085-0.463-0.144c-0.164-0.066-0.319-0.149-0.475-0.232c-0.111-0.058-0.224-0.113-0.33-0.179   c-0.158-0.099-0.306-0.213-0.452-0.329c-0.09-0.072-0.181-0.142-0.266-0.22c-0.139-0.126-0.267-0.263-0.391-0.404   c-0.077-0.087-0.151-0.176-0.222-0.269c-0.112-0.147-0.216-0.302-0.312-0.461c-0.062-0.104-0.119-0.21-0.173-0.318   c-0.083-0.165-0.16-0.333-0.224-0.508c-0.043-0.116-0.076-0.236-0.111-0.355c-0.052-0.182-0.101-0.365-0.132-0.554   C24.038,7.546,24,7.278,24,7C24,4.243,26.243,2,29,2z M8.651,12.943c0-1.335,0.52-2.591,1.464-3.535s2.2-1.465,3.536-1.465   s2.591,0.521,3.536,1.465c0.238,0.238,0.444,0.495,0.624,0.764l0.029,0.044c0.166,0.255,0.305,0.524,0.42,0.799   c0.045,0.108,0.071,0.221,0.108,0.332c0.06,0.178,0.12,0.355,0.159,0.537c0.028,0.132,0.041,0.267,0.059,0.4   c0.021,0.163,0.041,0.325,0.047,0.489c0.005,0.145-0.001,0.289-0.009,0.434c-0.008,0.153-0.022,0.306-0.044,0.458   c-0.021,0.147-0.048,0.293-0.083,0.438c-0.036,0.151-0.082,0.3-0.133,0.448c-0.046,0.136-0.091,0.272-0.149,0.404   c-0.073,0.166-0.162,0.325-0.254,0.484c-0.06,0.104-0.112,0.212-0.18,0.313c-0.174,0.255-0.368,0.502-0.594,0.728   c-0.228,0.228-0.476,0.424-0.733,0.598c-0.095,0.065-0.198,0.113-0.297,0.171c-0.167,0.097-0.335,0.192-0.511,0.268   c-0.122,0.053-0.248,0.094-0.374,0.136c-0.162,0.055-0.324,0.107-0.49,0.145c-0.133,0.031-0.268,0.054-0.403,0.074   c-0.165,0.024-0.331,0.04-0.497,0.047c-0.136,0.006-0.272,0.01-0.408,0.005c-0.167-0.006-0.334-0.025-0.5-0.048   c-0.135-0.018-0.271-0.034-0.404-0.064c-0.162-0.036-0.32-0.089-0.478-0.141c-0.134-0.044-0.271-0.081-0.402-0.137   c-0.146-0.062-0.283-0.146-0.423-0.222c-0.133-0.073-0.271-0.134-0.399-0.22l-0.008-0.005c-0.262-0.176-0.512-0.376-0.744-0.607   C9.171,15.535,8.651,14.279,8.651,12.943z M8.036,33.389L7.986,33.4C7.667,33.464,7.338,33.5,7,33.5c-2.757,0-5-2.243-5-5   s2.243-5,5-5c0.338,0,0.667,0.036,0.986,0.1l0.05,0.011c0.311,0.066,0.612,0.159,0.899,0.28c0.029,0.012,0.053,0.03,0.082,0.042   c0.262,0.116,0.514,0.25,0.749,0.407c0.038,0.025,0.071,0.055,0.108,0.081c0.219,0.155,0.427,0.323,0.619,0.511   c0.036,0.035,0.069,0.073,0.104,0.109c0.179,0.186,0.344,0.385,0.492,0.596c0.035,0.05,0.069,0.101,0.102,0.153   c0.133,0.204,0.247,0.42,0.35,0.643c0.031,0.068,0.064,0.134,0.092,0.203c0.089,0.22,0.156,0.45,0.213,0.683   c0.018,0.077,0.045,0.15,0.06,0.229C11.964,27.857,12,28.174,12,28.5c0,0.316-0.037,0.624-0.093,0.924   c-0.025,0.132-0.067,0.258-0.103,0.386c-0.043,0.159-0.088,0.317-0.146,0.469c-0.059,0.152-0.129,0.297-0.202,0.442   c-0.059,0.117-0.12,0.233-0.187,0.344c-0.089,0.147-0.184,0.289-0.287,0.426c-0.075,0.099-0.155,0.193-0.237,0.287   c-0.112,0.128-0.226,0.254-0.35,0.37c-0.099,0.092-0.206,0.174-0.312,0.258c-0.124,0.099-0.246,0.201-0.379,0.288   c-0.147,0.095-0.305,0.172-0.462,0.251c-0.124,0.063-0.244,0.133-0.374,0.185C8.601,33.238,8.324,33.328,8.036,33.389z    M18.232,44.364c-0.021,0.153-0.041,0.305-0.076,0.456c-0.03,0.13-0.074,0.257-0.114,0.384c-0.054,0.169-0.104,0.339-0.177,0.503   c-0.038,0.086-0.089,0.167-0.132,0.252c-0.098,0.192-0.195,0.386-0.321,0.568l-0.007,0.01c-0.169,0.245-0.354,0.483-0.572,0.701   c-0.944,0.944-2.2,1.465-3.536,1.465s-2.591-0.521-3.536-1.465s-1.464-2.2-1.464-3.535c0-1.336,0.52-2.592,1.464-3.536   c0.232-0.232,0.484-0.433,0.747-0.61l0.086-0.055c0.065-0.042,0.136-0.068,0.202-0.107c0.186-0.108,0.372-0.216,0.568-0.298   c0.143-0.06,0.292-0.096,0.439-0.141c0.141-0.044,0.28-0.094,0.424-0.125c0.158-0.034,0.319-0.05,0.479-0.069   c0.134-0.016,0.268-0.034,0.403-0.039c0.166-0.006,0.332,0.002,0.498,0.012c0.13,0.008,0.26,0.019,0.389,0.037   c0.164,0.023,0.327,0.054,0.488,0.093c0.134,0.033,0.265,0.074,0.397,0.117c0.149,0.049,0.297,0.1,0.441,0.163   c0.154,0.068,0.303,0.152,0.451,0.237c0.113,0.064,0.228,0.121,0.336,0.194c0.253,0.173,0.498,0.365,0.723,0.59   c0.229,0.229,0.427,0.479,0.602,0.738c0.061,0.091,0.107,0.188,0.161,0.282c0.102,0.174,0.201,0.349,0.279,0.532   c0.05,0.117,0.088,0.237,0.129,0.357c0.058,0.169,0.112,0.338,0.151,0.511c0.03,0.13,0.051,0.262,0.07,0.394   c0.024,0.166,0.04,0.332,0.048,0.499c0.006,0.141,0.008,0.281,0.003,0.422C18.27,44.056,18.252,44.21,18.232,44.364z M29,55   c-2.757,0-5-2.243-5-5c0-0.278,0.038-0.546,0.082-0.812c0.031-0.19,0.08-0.373,0.132-0.554c0.034-0.12,0.068-0.24,0.111-0.355   c0.065-0.175,0.141-0.343,0.224-0.508c0.055-0.108,0.111-0.215,0.173-0.319c0.096-0.16,0.199-0.314,0.312-0.461   c0.07-0.093,0.145-0.181,0.222-0.269c0.124-0.141,0.253-0.278,0.391-0.404c0.085-0.078,0.176-0.148,0.266-0.22   c0.146-0.116,0.294-0.229,0.452-0.329c0.106-0.066,0.219-0.121,0.33-0.18c0.156-0.082,0.31-0.166,0.474-0.231   c0.15-0.059,0.308-0.1,0.465-0.145c0.139-0.04,0.273-0.09,0.416-0.118C28.358,45.036,28.675,45,29,45   c0.325,0,0.642,0.036,0.95,0.096c0.142,0.028,0.276,0.077,0.414,0.117c0.158,0.045,0.317,0.086,0.468,0.146   c0.163,0.065,0.316,0.148,0.47,0.229c0.113,0.059,0.227,0.115,0.335,0.182c0.157,0.098,0.303,0.211,0.448,0.325   c0.092,0.073,0.185,0.145,0.271,0.224c0.137,0.125,0.264,0.26,0.386,0.399c0.079,0.089,0.155,0.18,0.227,0.275   c0.11,0.145,0.213,0.297,0.307,0.454c0.064,0.106,0.122,0.216,0.178,0.327c0.081,0.162,0.157,0.328,0.221,0.499   c0.044,0.119,0.079,0.243,0.114,0.366c0.051,0.178,0.099,0.358,0.129,0.544C33.962,49.451,34,49.721,34,50   C34,52.757,31.757,55,29,55z M38.319,39.35c-1.566,2.246-1.662,5.205-0.291,7.541c-0.76,0.373-1.549,0.701-2.361,0.981   c-0.679-2.12-2.343-3.801-4.452-4.506c-0.005-0.002-0.009-0.003-0.014-0.005c-0.324-0.108-0.658-0.19-1-0.249   c-0.057-0.01-0.113-0.017-0.17-0.026C29.694,43.034,29.351,43,29,43c-0.351,0-0.694,0.034-1.032,0.085   c-0.057,0.009-0.113,0.016-0.169,0.026c-0.343,0.06-0.678,0.142-1.002,0.25c-0.004,0.001-0.008,0.003-0.012,0.004   c-2.109,0.706-3.774,2.386-4.453,4.508c-0.931-0.321-1.841-0.711-2.722-1.165l0,0c0.301-0.634,0.501-1.303,0.6-1.985   c0.007-0.045,0.013-0.089,0.019-0.134c0.041-0.321,0.063-0.644,0.059-0.968c0-0.035-0.004-0.07-0.005-0.105   c-0.008-0.294-0.035-0.586-0.08-0.877c-0.008-0.052-0.013-0.104-0.022-0.156c-0.054-0.308-0.129-0.612-0.225-0.911   c-0.018-0.056-0.039-0.111-0.058-0.167c-0.096-0.279-0.209-0.553-0.341-0.82c-0.014-0.029-0.026-0.058-0.04-0.087   c-0.145-0.282-0.315-0.554-0.501-0.818c-0.041-0.058-0.084-0.115-0.127-0.173c-0.196-0.262-0.406-0.517-0.644-0.754   c-0.234-0.234-0.485-0.441-0.742-0.635c-0.049-0.037-0.099-0.074-0.149-0.109c-0.553-0.395-1.15-0.698-1.773-0.913   c-0.005-0.002-0.01-0.003-0.015-0.005c-1.318-0.45-2.74-0.498-4.08-0.142c-0.004,0.001-0.009,0.002-0.013,0.003   c-0.332,0.089-0.658,0.203-0.976,0.341c-0.005,0.002-0.01,0.003-0.014,0.005c-0.349-0.735-0.655-1.501-0.918-2.29   c0.007-0.003,0.014-0.007,0.021-0.01c0.315-0.126,0.618-0.275,0.909-0.443c0.011-0.007,0.022-0.014,0.034-0.02   c1.757-1.032,3.023-2.805,3.368-4.888c0.01-0.057,0.018-0.115,0.026-0.172C13.969,29.155,14,28.831,14,28.5   c0-0.321-0.029-0.634-0.071-0.944c-0.012-0.09-0.026-0.179-0.041-0.268c-0.045-0.258-0.102-0.511-0.175-0.758   c-0.036-0.124-0.08-0.244-0.122-0.366c-0.062-0.175-0.129-0.348-0.204-0.516c-0.063-0.141-0.128-0.278-0.2-0.414   c-0.056-0.105-0.118-0.206-0.179-0.309c-0.153-0.258-0.321-0.503-0.505-0.738c-0.053-0.068-0.105-0.135-0.161-0.201   c-0.121-0.143-0.244-0.281-0.376-0.413c-0.06-0.06-0.125-0.116-0.187-0.174c-0.209-0.195-0.427-0.378-0.66-0.547   c-0.128-0.094-0.258-0.183-0.393-0.268c-0.104-0.065-0.207-0.132-0.315-0.192c-0.251-0.141-0.511-0.266-0.78-0.375   c-0.019-0.008-0.036-0.019-0.056-0.027c0.31-0.917,0.689-1.819,1.134-2.698c0.021,0.01,0.044,0.015,0.066,0.024   c0.305,0.137,0.616,0.257,0.935,0.349c0.009,0.003,0.017,0.004,0.026,0.006c0.304,0.086,0.613,0.147,0.925,0.191   c0.053,0.008,0.105,0.016,0.158,0.023c0.277,0.033,0.555,0.055,0.834,0.055c0.038,0,0.076-0.005,0.114-0.005   c0.04-0.001,0.08-0.004,0.12-0.006c0.301-0.01,0.601-0.039,0.899-0.087c0.032-0.005,0.064-0.008,0.096-0.014   c0.316-0.056,0.628-0.136,0.936-0.236c0.045-0.015,0.09-0.031,0.135-0.047c0.298-0.103,0.591-0.223,0.875-0.367   c0.011-0.005,0.022-0.01,0.033-0.015c0.285-0.147,0.558-0.318,0.825-0.507c0.057-0.04,0.112-0.081,0.167-0.123   c0.26-0.195,0.513-0.404,0.75-0.64c0.235-0.235,0.442-0.487,0.637-0.745c0.039-0.051,0.077-0.102,0.114-0.155   c0.39-0.549,0.691-1.14,0.904-1.757c0.007-0.021,0.015-0.041,0.022-0.062c0.216-0.645,0.335-1.313,0.359-1.986   c0.001-0.018,0.002-0.035,0.003-0.052c0.009-0.334-0.004-0.668-0.042-1.001c-0.002-0.021-0.006-0.042-0.009-0.063   c-0.039-0.312-0.099-0.622-0.18-0.928c-0.007-0.028-0.013-0.057-0.021-0.085c-0.087-0.312-0.197-0.617-0.327-0.917   c-0.008-0.018-0.012-0.038-0.02-0.056c0.752-0.369,1.52-0.69,2.294-0.959c0.679,2.121,2.344,3.801,4.453,4.507   c0.004,0.001,0.008,0.003,0.011,0.004c0.324,0.108,0.658,0.19,1.001,0.25c0.057,0.01,0.114,0.018,0.171,0.026   C28.307,13.966,28.649,14,29,14s0.694-0.034,1.031-0.085c0.057-0.009,0.114-0.016,0.17-0.026c0.343-0.06,0.677-0.142,1.001-0.25   c0.003-0.001,0.007-0.003,0.01-0.004c2.109-0.705,3.774-2.385,4.453-4.505c0.639,0.223,1.279,0.484,1.916,0.782   c-0.73,1.322-0.999,2.828-0.81,4.29c0.005,0.039,0.011,0.077,0.017,0.116c0.05,0.34,0.118,0.678,0.218,1.009   c0.005,0.016,0.012,0.032,0.017,0.048c0.094,0.306,0.215,0.604,0.352,0.897c0.026,0.056,0.05,0.113,0.078,0.168   c0.146,0.29,0.314,0.572,0.502,0.844c0.039,0.057,0.081,0.111,0.123,0.167c0.205,0.277,0.425,0.547,0.676,0.798   c0.264,0.264,0.549,0.495,0.842,0.708c0.04,0.029,0.079,0.06,0.12,0.088c0.301,0.209,0.615,0.391,0.939,0.547   c0.014,0.007,0.028,0.013,0.043,0.02c0.949,0.451,1.976,0.684,3.006,0.684c1.248,0,2.492-0.339,3.595-1   c0.392,0.778,0.736,1.585,1.029,2.415c-0.007,0.002-0.013,0.005-0.02,0.007c-0.753,0.188-1.458,0.495-2.093,0.905   c-0.007,0.004-0.014,0.008-0.021,0.013c-0.302,0.197-0.586,0.418-0.853,0.658c-0.03,0.026-0.059,0.053-0.088,0.08   c-0.258,0.24-0.5,0.495-0.72,0.771c-0.017,0.022-0.033,0.045-0.05,0.067c-0.219,0.281-0.42,0.577-0.595,0.891   c-0.004,0.007-0.009,0.014-0.013,0.021c-0.169,0.306-0.31,0.628-0.433,0.959c-0.02,0.053-0.04,0.105-0.058,0.159   c-0.111,0.323-0.199,0.655-0.262,0.997c-0.011,0.057-0.017,0.115-0.026,0.173C43.038,27.766,43,28.128,43,28.5   s0.038,0.734,0.094,1.091c0.009,0.058,0.016,0.116,0.026,0.173c0.063,0.342,0.151,0.675,0.262,0.997   c0.018,0.053,0.038,0.105,0.058,0.158c0.123,0.332,0.264,0.654,0.434,0.96c0.004,0.007,0.008,0.013,0.012,0.02   c0.175,0.313,0.376,0.61,0.595,0.891c0.017,0.022,0.033,0.045,0.05,0.067c0.22,0.276,0.462,0.532,0.721,0.771   c0.029,0.027,0.058,0.053,0.088,0.08c0.268,0.24,0.551,0.461,0.853,0.658c0.007,0.005,0.015,0.009,0.022,0.013   c0.635,0.41,1.341,0.718,2.095,0.906c0.006,0.002,0.012,0.004,0.018,0.006c-0.235,0.661-0.511,1.32-0.823,1.975   c-0.987-0.559-2.08-0.858-3.184-0.899c-0.038-0.002-0.076-0.004-0.115-0.005c-0.322-0.007-0.644,0.008-0.964,0.046   c-0.084,0.009-0.166,0.023-0.249,0.036c-0.287,0.044-0.573,0.101-0.854,0.181c-0.072,0.02-0.142,0.044-0.213,0.066   c-0.265,0.084-0.525,0.187-0.78,0.303c-0.08,0.036-0.16,0.071-0.238,0.11c-0.282,0.142-0.556,0.305-0.821,0.487   c-0.061,0.042-0.12,0.088-0.18,0.132c-0.278,0.205-0.549,0.425-0.8,0.677c-0.263,0.263-0.493,0.546-0.705,0.838   C38.374,39.276,38.345,39.312,38.319,39.35z M47.592,46.885c-1.93,1.93-5.056,1.944-7.011,0.049l-0.3-0.35   c-1.264-1.476-1.522-3.512-0.809-5.208c0.026-0.061,0.064-0.117,0.093-0.177c0.102-0.217,0.209-0.433,0.343-0.635   c0.177-0.264,0.379-0.517,0.612-0.75c0.236-0.236,0.492-0.441,0.76-0.62c0.091-0.061,0.191-0.102,0.285-0.157   c0.181-0.104,0.362-0.21,0.553-0.29c0.128-0.054,0.263-0.087,0.394-0.129c0.161-0.052,0.322-0.109,0.487-0.144   c0.17-0.036,0.343-0.052,0.516-0.07c0.125-0.014,0.249-0.032,0.374-0.036c0.221-0.006,0.442,0.008,0.662,0.031   c0.07,0.007,0.141,0.01,0.211,0.02c0.271,0.041,0.539,0.102,0.803,0.188c0.013,0.004,0.027,0.008,0.04,0.012   c0.576,0.193,1.127,0.493,1.623,0.905l0.391,0.324c0.924,0.941,1.436,2.181,1.436,3.502C49.056,44.685,48.536,45.94,47.592,46.885z    M49.454,33.445c-0.213-0.023-0.425-0.05-0.629-0.099c-0.112-0.027-0.219-0.067-0.328-0.102c-0.194-0.062-0.388-0.124-0.571-0.208   c-0.111-0.051-0.214-0.115-0.32-0.174c-0.167-0.092-0.336-0.183-0.491-0.293c-0.108-0.077-0.204-0.167-0.305-0.252   c-0.137-0.115-0.278-0.226-0.402-0.355c-0.1-0.103-0.183-0.22-0.274-0.332c-0.106-0.131-0.218-0.257-0.311-0.397   c-0.087-0.133-0.154-0.278-0.228-0.419c-0.073-0.137-0.155-0.269-0.214-0.413c-0.073-0.176-0.118-0.364-0.171-0.549   c-0.035-0.124-0.084-0.241-0.11-0.368C45.036,29.166,45,28.837,45,28.5c0-0.337,0.036-0.665,0.099-0.984   c0.026-0.13,0.076-0.25,0.112-0.377c0.052-0.182,0.097-0.367,0.168-0.54c0.061-0.147,0.145-0.282,0.219-0.422   c0.073-0.138,0.138-0.28,0.223-0.41c0.095-0.144,0.209-0.273,0.318-0.406c0.088-0.108,0.17-0.222,0.267-0.323   c0.127-0.131,0.27-0.245,0.41-0.362c0.099-0.083,0.192-0.171,0.297-0.246c0.157-0.111,0.328-0.204,0.497-0.297   c0.104-0.057,0.205-0.121,0.314-0.171c0.184-0.084,0.38-0.148,0.575-0.21c0.108-0.034,0.213-0.074,0.324-0.101   c0.204-0.049,0.416-0.076,0.63-0.099c0.182-0.02,0.36-0.055,0.547-0.055c2.757,0,5,2.243,5,5s-2.243,5-5,5   C49.813,33.5,49.635,33.465,49.454,33.445z" fill="#595959"/>
</g>
<g>
</g>
<g>
</g>
<g>
</g>
<g>
</g>
<g>
</g>
<g>
</g>
<g>
</g>
<g>
</g>
<g>
</g>
<g>
</g>
<g>
</g>
<g>
</g>
<g>
</g>
<g>
</g>
<g>
</g>
</svg>
