<?xml version="1.0" encoding="iso-8859-1"?>
<svg xmlns="http://www.w3.org/2000/svg" xmlns:xlink="http://www.w3.org/1999/xlink" version="1.1" viewBox="0 0 463 463" enable-background="new 0 0 463 463" width="512px" height="512px">
  <path d="m462.978,335.069c-0.23-21.558-9.339-42.32-25.1-57.076-16.106-15.077-37.065-22.579-59.004-21.132-64.447,4.257-103.271-1.912-122.175-19.416-11.96-11.075-17.419-27.541-17.699-53.392-0.002-0.157-0.002-0.328-0.003-0.493 0-0.02 0.003-0.04 0.003-0.06 0-0.026-0.004-0.051-0.004-0.076-0.095-20.316 5.197-93.807 7.257-118.697 0.354-4.289-1.111-8.563-4.022-11.725-2.927-3.179-7.093-5.002-11.43-5.002h-215.301c-8.547,0-15.5,6.953-15.5,15.5v240c0,8.936 2.987,17.186 8.01,23.812-0.002,0.063-0.01,0.125-0.01,0.188v64c0,12.958 10.542,23.5 23.5,23.5h128c12.958,0 23.5-10.542 23.5-23.5v-7.632c23.306,2.909 43.664,8.412 65.087,14.204 30.786,8.322 62.62,16.928 103.413,16.928 52.147,0 80.874-6.257 95.791-11.506 9.396-3.307 15.709-12.223 15.709-22.187v-45.807c0-0.146-0.014-0.288-0.022-0.431zm-83.116-63.241c17.767-1.174 34.721,4.905 47.764,17.115 13.139,12.299 20.374,28.976 20.374,46.959v5.406c0,3.609-2.286,6.839-5.688,8.037-11.309,3.979-38.144,10.655-90.812,10.655-41.435,0-70.401-7.401-101.07-15.237-32.255-8.241-65.609-16.763-114.93-16.763h-96c-13.51,0-24.5-10.991-24.5-24.5v-64.5h58.234c3.138,9.29 11.93,16 22.266,16h48c10.336,0 19.128-6.71 22.266-16h72.402c2.442,3.417 5.214,6.556 8.34,9.451 22.437,20.778 63.572,27.987 133.354,23.377zm-155.664-80.828c0.608,12.896 2.572,23.754 6.047,33h-63.245v-33h57.198zm-72.198,9h-32.5c-4.143,0-7.5,3.358-7.5,7.5s3.357,7.5 7.5,7.5h32.5v16.5c0,4.687-3.813,8.5-8.5,8.5h-48c-4.687,0-8.5-3.813-8.5-8.5v-48c0-4.687 3.813-8.5 8.5-8.5h48c4.687,0 8.5,3.813 8.5,8.5v16.5zm-80,24h-57v-33h57v33zm-56.5-161h215.301c0.061,0 0.245,0 0.395,0.162 0.125,0.135 0.113,0.266 0.108,0.328-1.871,22.617-6.39,85.183-7.188,112.51h-58.35c-3.138-9.29-11.93-16-22.266-16h-48c-10.336,0-19.128,6.71-22.266,16h-58.234v-112.5c0-0.276 0.225-0.5 0.5-0.5zm426.812,326.345c-11.309,3.979-38.144,10.655-90.812,10.655-38.802,0-68.284-7.971-99.498-16.409-23.453-6.34-47.705-12.897-75.795-15.558-2.101-0.197-4.191,0.498-5.754,1.919-1.563,1.421-2.453,3.436-2.453,5.548v16c0,4.687-3.813,8.5-8.5,8.5h-128c-4.687,0-8.5-3.813-8.5-8.5v-52.125c5.025,2.32 10.612,3.625 16.5,3.625h96c47.436,0 79.859,8.285 111.217,16.296 30.217,7.721 61.463,15.704 104.783,15.704 52.147,0 80.874-6.257 95.791-11.506 0.241-0.085 0.472-0.189 0.709-0.281v18.095c0,3.609-2.286,6.839-5.688,8.037z" fill="#595959"/>
</svg>
