<?xml version="1.0" encoding="iso-8859-1"?>
<!-- Generator: Adobe Illustrator 19.0.0, SVG Export Plug-In . SVG Version: 6.00 Build 0)  -->
<svg xmlns="http://www.w3.org/2000/svg" xmlns:xlink="http://www.w3.org/1999/xlink" version="1.1" id="Layer_1" x="0px" y="0px" viewBox="0 0 512 512" style="enable-background:new 0 0 512 512;" xml:space="preserve" width="512px" height="512px">
<g>
	<g>
		<g>
			<path d="M277.333,170.667c-58.813,0-106.667,47.854-106.667,106.667S218.521,384,277.333,384S384,336.146,384,277.333     S336.146,170.667,277.333,170.667z M277.333,362.667c-47.052,0-85.333-38.281-85.333-85.333C192,230.281,230.281,192,277.333,192     c47.052,0,85.333,38.281,85.333,85.333C362.667,324.385,324.385,362.667,277.333,362.667z" fill="#595959"/>
			<path d="M469.333,106.667H391.01c-8.552,0-16.583-3.333-22.635-9.375l-17.667-17.667C340.635,69.552,327.24,64,312.99,64h-71.313     c-14.25,0-27.646,5.552-37.719,15.625l-17.667,17.667c-6.052,6.042-14.083,9.375-22.635,9.375H128V96     c0-5.896-4.771-10.667-10.667-10.667H74.667C68.771,85.333,64,90.104,64,96v10.667H42.667C19.135,106.667,0,125.802,0,149.333     v256C0,428.865,19.135,448,42.667,448h426.667C492.865,448,512,428.865,512,405.333v-256     C512,125.802,492.865,106.667,469.333,106.667z M490.667,405.333c0,11.76-9.573,21.333-21.333,21.333H42.667     c-11.76,0-21.333-9.573-21.333-21.333v-256c0-11.76,9.573-21.333,21.333-21.333h32h42.667h46.323     c14.25,0,27.646-5.552,37.719-15.625l17.667-17.667c6.052-6.042,14.083-9.375,22.635-9.375h71.313     c8.552,0,16.583,3.333,22.635,9.375l17.667,17.667C363.365,122.448,376.76,128,391.01,128h78.323     c11.76,0,21.333,9.573,21.333,21.333V405.333z" fill="#595959"/>
			<path d="M117.333,170.667H74.667c-5.896,0-10.667,4.771-10.667,10.667v21.333c0,5.896,4.771,10.667,10.667,10.667h42.667     c5.896,0,10.667-4.771,10.667-10.667v-21.333C128,175.438,123.229,170.667,117.333,170.667z" fill="#595959"/>
		</g>
	</g>
</g>
<g>
</g>
<g>
</g>
<g>
</g>
<g>
</g>
<g>
</g>
<g>
</g>
<g>
</g>
<g>
</g>
<g>
</g>
<g>
</g>
<g>
</g>
<g>
</g>
<g>
</g>
<g>
</g>
<g>
</g>
</svg>
