<?xml version="1.0" encoding="iso-8859-1"?>
<!-- Generator: Adobe Illustrator 19.0.0, SVG Export Plug-In . SVG Version: 6.00 Build 0)  -->
<svg xmlns="http://www.w3.org/2000/svg" xmlns:xlink="http://www.w3.org/1999/xlink" version="1.1" id="Layer_1" x="0px" y="0px" viewBox="0 0 511.996 511.996" style="enable-background:new 0 0 511.996 511.996;" xml:space="preserve" width="512px" height="512px">
<g>
	<g>
		<path d="M458.668,255.998c0-127.999-21.344-202.663-21.344-202.663h-0.344L458.668,0h-202.67H53.328l21.688,53.335h-0.344    c0,0-21.344,74.664-21.344,202.663c0,127.998,21.344,202.654,21.344,202.654h0.344l-21.688,53.344h202.67h202.67l-21.688-53.344    h0.344C437.324,458.652,458.668,383.996,458.668,255.998z M138.671,21.336c0,5.891,4.766,10.664,10.656,10.664    c5.89,0,10.672-4.773,10.672-10.664h21.328c0,5.891,4.781,10.664,10.672,10.664s10.672-4.773,10.672-10.664h21.327    c0,5.891,4.781,10.664,10.672,10.664s10.656-4.773,10.656-10.664h10.672h10.672c0,5.891,4.766,10.664,10.656,10.664    s10.672-4.773,10.672-10.664h21.328c0,5.891,4.781,10.664,10.672,10.664s10.672-4.773,10.672-10.664h21.327    c0,5.891,4.781,10.664,10.672,10.664s10.656-4.773,10.656-10.664h53.64L413.95,53.335H255.998H98.046L85.031,21.336H138.671z     M84.922,110.968c2.344-15.414,4.719-27.625,6.578-36.305h164.498h164.498c1.859,8.688,4.234,20.891,6.578,36.305    c2.328,15.305,4.891,35.422,6.859,59.694H352.2c-23.577-26.562-57.968-43.327-96.202-43.327    c-38.233,0-72.624,16.766-96.202,43.327H78.062C80.031,146.39,82.594,126.272,84.922,110.968z M363.325,255.998    c0,59.186-48.14,107.342-107.327,107.342s-107.327-48.156-107.327-107.342c0-59.188,48.141-107.335,107.327-107.335    C315.186,148.663,363.325,196.81,363.325,255.998z M74.672,255.998c0-23.281,0.734-44.688,1.891-64h67.843    c-10.859,18.859-17.078,40.719-17.078,64s6.219,45.139,17.078,63.998H76.562C75.406,300.684,74.672,279.279,74.672,255.998z     M373.325,490.652c0-5.875-4.766-10.656-10.656-10.656s-10.672,4.781-10.672,10.656H330.67c0-5.875-4.781-10.656-10.672-10.656    s-10.672,4.781-10.672,10.656h-21.328c0-5.875-4.781-10.656-10.672-10.656s-10.656,4.781-10.656,10.656h-10.672h-10.672    c0-5.875-4.766-10.656-10.656-10.656s-10.672,4.781-10.672,10.656h-21.327c0-5.875-4.781-10.656-10.672-10.656    s-10.672,4.781-10.672,10.656h-21.328c0-5.875-4.781-10.656-10.672-10.656s-10.656,4.781-10.656,10.656h-53.64l13.015-32h157.952    H413.95l13.015,32H373.325z M427.074,401.027c-2.344,15.406-4.719,27.625-6.578,36.312H255.998H91.5    c-1.859-8.688-4.234-20.906-6.578-36.312c-2.328-15.312-4.891-35.422-6.859-59.688h81.733    c23.578,26.562,57.969,43.312,96.202,43.312c38.234,0,72.625-16.75,96.202-43.312h81.733    C431.965,365.605,429.402,385.715,427.074,401.027z M435.433,319.996H367.59c10.859-18.859,17.078-40.717,17.078-63.998    c0-23.281-6.219-45.141-17.078-64h67.843c1.157,19.312,1.891,40.719,1.891,64S436.59,300.684,435.433,319.996z" fill="#595959"/>
	</g>
</g>
<g>
	<g>
		<path d="M319.67,223.998H192.327c-5.891,0-10.656,4.773-10.656,10.664s4.765,10.672,10.656,10.672H319.67    c5.891,0,10.656-4.781,10.656-10.672S325.56,223.998,319.67,223.998z" fill="#595959"/>
	</g>
</g>
<g>
	<g>
		<path d="M287.826,266.662H224.17c-5.89,0-10.671,4.781-10.671,10.68c0,5.875,4.781,10.656,10.671,10.656h63.656    c5.891,0,10.672-4.781,10.672-10.656C298.498,271.443,293.717,266.662,287.826,266.662z" fill="#595959"/>
	</g>
</g>
<g>
</g>
<g>
</g>
<g>
</g>
<g>
</g>
<g>
</g>
<g>
</g>
<g>
</g>
<g>
</g>
<g>
</g>
<g>
</g>
<g>
</g>
<g>
</g>
<g>
</g>
<g>
</g>
<g>
</g>
</svg>
