<?xml version="1.0" encoding="iso-8859-1"?>
<!-- Generator: Adobe Illustrator 19.0.0, SVG Export Plug-In . SVG Version: 6.00 Build 0)  -->
<svg xmlns="http://www.w3.org/2000/svg" xmlns:xlink="http://www.w3.org/1999/xlink" version="1.1" id="Layer_1" x="0px" y="0px" viewBox="0 0 513.365 513.365" style="enable-background:new 0 0 513.365 513.365;" xml:space="preserve" width="512px" height="512px">
<g>
	<g>
		<path d="M257.365,0.683h-0.683H256c-141.385,0-256,114.615-256,256s114.615,256,256,256h0.683h0.683    c141.385,0,256-114.615,256-256S398.75,0.683,257.365,0.683z M425.643,425.643c-42.647,42.855-100.004,67.872-160.427,69.973    v-25.6c0-4.713-3.82-8.533-8.533-8.533c-4.713,0-8.533,3.82-8.533,8.533v25.6c-125.377-4.403-225.997-105.023-230.4-230.4h25.6    c4.713,0,8.533-3.82,8.533-8.533s-3.82-8.533-8.533-8.533h-25.6c4.403-125.377,105.023-225.997,230.4-230.4v25.6    c0,4.713,3.82,8.533,8.533,8.533c4.713,0,8.533-3.82,8.533-8.533v-25.6c125.377,4.403,225.997,105.023,230.4,230.4h-25.6    c-4.713,0-8.533,3.82-8.533,8.533s3.82,8.533,8.533,8.533h25.6C493.592,325.656,468.562,383.041,425.643,425.643z" fill="#595959"/>
	</g>
</g>
<g>
	<g>
		<path d="M387.528,122.705c-6.201-4.663-14.768-4.556-20.851,0.26l0.256-0.427l-93.867,76.8    c-31.819-8.712-64.675,10.021-73.387,41.839c-2.827,10.326-2.827,21.221,0,31.547l-77.397,94.891    c-5.608,7.576-4.014,18.263,3.562,23.872c2.921,2.163,6.457,3.336,10.091,3.35c3.821-0.025,7.532-1.281,10.581-3.584l94.293-76.8    c31.837,8.647,64.655-10.152,73.301-41.989c2.784-10.252,2.784-21.061,0-31.313l76.8-94.549    C396.577,139.069,395.062,128.37,387.528,122.705z M135.765,377.685l71.339-87.637l0.597,0.683    c3.966,5.867,9.004,10.933,14.848,14.933l0.683,0.597L135.765,377.685z M286.891,286.891    c-11.822,11.839-29.472,15.675-45.141,9.813c-5.72-2.122-10.904-5.471-15.189-9.813c-2.153-2.15-4.07-4.525-5.717-7.083    c-1.629-2.548-2.974-5.266-4.011-8.107c-8.24-22.077,2.977-46.653,25.054-54.893c9.643-3.599,20.263-3.591,29.901,0.023    c5.72,2.121,10.904,5.471,15.189,9.813c2.153,2.15,4.07,4.525,5.717,7.083c1.629,2.548,2.974,5.266,4.011,8.107    C302.529,257.48,298.695,275.085,286.891,286.891z M306.261,223.317l-0.597-0.768c-3.975-5.836-9.012-10.873-14.848-14.848    l-0.683-0.597l87.552-71.424L306.261,223.317z" fill="#595959"/>
	</g>
</g>
<g>
</g>
<g>
</g>
<g>
</g>
<g>
</g>
<g>
</g>
<g>
</g>
<g>
</g>
<g>
</g>
<g>
</g>
<g>
</g>
<g>
</g>
<g>
</g>
<g>
</g>
<g>
</g>
<g>
</g>
</svg>
