<?xml version="1.0" encoding="iso-8859-1"?>
<!-- Generator: Adobe Illustrator 19.0.0, SVG Export Plug-In . SVG Version: 6.00 Build 0)  -->
<svg xmlns="http://www.w3.org/2000/svg" xmlns:xlink="http://www.w3.org/1999/xlink" version="1.1" id="Layer_1" x="0px" y="0px" viewBox="0 0 512.853 512.853" style="enable-background:new 0 0 512.853 512.853;" xml:space="preserve" width="512px" height="512px">
<g transform="translate(1 1)">
	<g>
		<g>
			<path d="M503.32,50.627c5.12,0,8.533-3.413,8.533-8.533V7.96c0-5.12-3.413-8.533-8.533-8.533c-70.827,0-128,57.173-128,128v43.52     c-21.333,3.413-40.107,17.92-50.347,37.547c-9.387,17.92-27.307,29.013-47.787,29.013h-43.52c-20.48,0-38.4-11.093-47.787-29.013     c-10.24-19.627-29.013-33.28-50.347-37.547v-43.52c0-70.827-57.173-128-128-128C2.413-0.573-1,2.84-1,7.96v34.133     c0,5.12,3.413,8.533,8.533,8.533c42.667,0,76.8,34.133,76.8,76.8v42.667h-15.36C30.573,170.093-1,201.667-1,240.067V366.36     c0,80.213,64.853,145.067,145.067,145.067h221.867c80.213,0,145.067-64.853,145.92-145.067V240.067     c0-38.4-31.573-69.973-69.973-69.973h-15.36v-42.667C426.52,84.76,460.653,50.627,503.32,50.627z M417.133,187.16h23.893     c29.013,0,52.907,23.893,52.907,52.907V366.36c0,70.827-57.173,128-128,128H144.067c-70.827,0-128-57.173-128-128V240.067     c0-29.013,23.893-52.907,52.907-52.907h23.893c5.12,0,8.533-3.413,8.533-8.533v-51.2c0-49.493-37.547-89.6-85.333-93.867V16.493     C73.24,20.76,118.467,69.4,117.613,127.427v51.2c0,4.267,3.413,8.533,7.68,8.533c18.773,0.853,35.84,11.947,44.373,29.013     c11.947,24.747,36.693,39.253,63.147,39.253h43.52c27.307,0,51.2-15.36,63.147-39.253c8.533-16.213,25.6-28.16,44.373-29.013     c4.267,0,7.68-4.267,7.68-8.533v-51.2c0-58.88,45.227-106.667,102.4-110.933V33.56c-47.787,5.12-85.333,45.227-85.333,93.867     v51.2C408.6,183.747,412.013,187.16,417.133,187.16z" fill="#595959"/>
			<path d="M280.6,306.627c-4.827,0-9.27,0.575-13.339,1.623c5.662-11.065,17.183-18.69,30.405-18.69     c5.12,0,8.533-3.413,8.533-8.533s-3.413-8.533-8.533-8.533c-23.448,0-43.332,15.979-49.335,37.582     c-5.481-2.201-11.79-3.449-18.932-3.449c-32.427,0-68.267,36.693-68.267,85.333c0,48.64,35.84,85.333,68.267,85.333     c8.533,0,17.92-2.56,25.6-6.827c7.68,4.267,17.067,6.827,25.6,6.827c32.427,0,68.267-36.693,68.267-85.333     C348.867,343.32,313.027,306.627,280.6,306.627z M280.6,460.227c-6.827,0-15.36-2.56-20.48-6.827     c-1.707-0.853-3.413-1.707-5.12-1.707s-3.413,0.853-5.12,1.707c-5.12,4.267-13.653,6.827-20.48,6.827     c-23.04,0-51.2-30.72-51.2-68.267c0-37.547,28.16-68.267,51.2-68.267c7.739,0,13.372,1.413,18.809,5.494     c1.027,1.319,2.468,2.259,4.223,2.718c2.839,1.026,5.938,0.567,8.541-1.385c5.12-5.12,11.093-6.827,19.627-6.827     c23.04,0,51.2,30.72,51.2,68.267C331.8,429.507,303.64,460.227,280.6,460.227z" fill="#595959"/>
		</g>
	</g>
</g>
<g>
</g>
<g>
</g>
<g>
</g>
<g>
</g>
<g>
</g>
<g>
</g>
<g>
</g>
<g>
</g>
<g>
</g>
<g>
</g>
<g>
</g>
<g>
</g>
<g>
</g>
<g>
</g>
<g>
</g>
</svg>
