<?xml version="1.0" encoding="iso-8859-1"?>
<!-- Generator: Adobe Illustrator 19.0.0, SVG Export Plug-In . SVG Version: 6.00 Build 0)  -->
<svg xmlns="http://www.w3.org/2000/svg" xmlns:xlink="http://www.w3.org/1999/xlink" version="1.1" id="Layer_1" x="0px" y="0px" viewBox="0 0 362.264 362.264" style="enable-background:new 0 0 362.264 362.264;" xml:space="preserve" width="512px" height="512px">
<g>
	<g>
		<path d="M315.51,22.217H46.756L0,111.663l181.132,228.384l181.132-228.384L315.51,22.217z M12.279,110.5L53.02,32.56h256.225    l40.741,77.94L181.132,323.402L12.279,110.5z" fill="#595959"/>
	</g>
</g>
<g>
	<g>
		<rect x="6.139" y="105.91" width="349.98" height="10.343" fill="#595959"/>
	</g>
</g>
<g>
	<g>
		
			<rect x="96.186" y="216.225" transform="matrix(0.2556 -0.9668 0.9668 0.2556 -57.4928 368.1263)" width="228.234" height="10.344" fill="#595959"/>
	</g>
</g>
<g>
	<g>
		
			<rect x="146.796" y="107.296" transform="matrix(0.9668 -0.2556 0.2556 0.9668 -51.5442 46.1966)" width="10.344" height="228.234" fill="#595959"/>
	</g>
</g>
<g>
	<g>
		<rect x="226.988" y="26.751" transform="matrix(0.9852 -0.1716 0.1716 0.9852 -8.4364 40.8641)" width="10.344" height="84.964" fill="#595959"/>
	</g>
</g>
<g>
	<g>
		<rect x="87.612" y="64.07" transform="matrix(0.1717 -0.9852 0.9852 0.1717 39.5451 185.5185)" width="84.967" height="10.345" fill="#595959"/>
	</g>
</g>
<g>
</g>
<g>
</g>
<g>
</g>
<g>
</g>
<g>
</g>
<g>
</g>
<g>
</g>
<g>
</g>
<g>
</g>
<g>
</g>
<g>
</g>
<g>
</g>
<g>
</g>
<g>
</g>
<g>
</g>
</svg>
