<?xml version="1.0" encoding="iso-8859-1"?>
<!-- Generator: Adobe Illustrator 19.0.0, SVG Export Plug-In . SVG Version: 6.00 Build 0)  -->
<svg xmlns="http://www.w3.org/2000/svg" xmlns:xlink="http://www.w3.org/1999/xlink" version="1.1" id="Capa_1" x="0px" y="0px" viewBox="0 0 400.384 400.384" style="enable-background:new 0 0 400.384 400.384;" xml:space="preserve" width="512px" height="512px">
<g>
	<g>
		<path d="M304.896,16.384c-4.608-8.704-13.312-14.848-24.064-14.848l-11.264-0.512c-7.168,0-13.824,2.56-18.944,7.68    s-8.192,11.776-8.192,18.944l-1.024,173.056c0,7.168,2.56,13.824,7.68,19.456c4.608,4.608,11.776,7.68,18.944,7.68l11.264,0.512    c7.168,0,13.824-2.56,18.944-7.68c2.048-2.048,3.584-4.608,5.12-7.168c2.56-0.512,5.12-1.536,7.68-2.56v23.552    c0,9.216,6.144,16.896,14.848,18.944v141.824c0,3.072,2.048,5.12,5.12,5.12c3.072,0,5.12-2.048,5.12-5.12V253.44    c8.192-2.048,14.848-9.728,14.848-18.944v-48.64c17.92-18.432,28.672-44.032,28.672-71.168    C379.648,68.608,348.928,28.672,304.896,16.384z M297.216,28.672l-1.024,173.056c0,4.608-2.048,8.704-5.12,11.776    c-3.072,3.072-7.168,4.608-11.776,4.608l-11.264-0.512c-4.608,0-8.704-2.048-11.776-5.12c-3.072-3.072-5.12-7.68-4.608-11.776    l1.024-173.056c0-4.608,2.048-8.704,5.12-11.776c3.072-3.072,7.168-4.608,11.776-4.608l11.264,0.512    c4.608,0,8.704,2.048,11.776,5.12C295.68,19.968,297.728,24.576,297.216,28.672z M330.496,244.224    c-5.12,0-9.728-4.096-9.728-9.728v-28.16c6.656-3.072,13.312-7.168,18.944-11.776v39.936h0.512    C340.224,239.616,336.128,244.224,330.496,244.224z M306.432,201.216v-0.512l1.024-172.544v-0.512    c36.864,12.8,61.952,47.104,61.952,86.528C369.408,154.112,343.808,188.928,306.432,201.216z" fill="#595959"/>
	</g>
</g>
<g>
	<g>
		<path d="M158.464,27.136C158.464,12.288,146.176,0,131.328,0l-11.264,0.512c-7.168,0-13.824,3.072-18.944,8.192    c-2.048,2.048-3.584,4.608-4.608,7.168C51.456,28.16,20.736,68.608,20.736,114.176c0,27.648,10.752,52.736,29.184,71.168v48.64    c0,9.216,6.144,16.896,14.848,18.944v141.824c0,3.072,2.048,5.12,5.12,5.12s5.12-2.048,5.12-5.12V253.44    c8.192-2.048,14.848-9.728,14.848-18.944v-23.552c2.56,1.024,5.12,1.536,7.68,2.56c4.608,8.704,13.824,14.848,24.064,14.848    l11.264-0.512c7.168,0,13.824-3.072,18.944-8.192c5.12-5.12,7.68-11.776,7.68-19.456L158.464,27.136z M69.376,244.224    c-5.12,0-9.728-4.096-9.728-9.728v-39.424c5.632,4.608,12.288,8.192,18.944,11.776v27.648h0.512    C79.104,239.616,75.008,244.224,69.376,244.224z M93.44,201.728c-37.376-12.288-62.976-47.104-62.976-87.04    c0.512-39.936,25.6-74.24,61.952-87.04v0.512l1.024,173.056V201.728z M144.128,211.968c-3.072,3.072-7.168,5.12-11.776,5.12    l-11.264,0.512c-9.216,0-16.896-7.68-16.896-16.896L102.656,28.16c0-4.608,1.536-8.704,4.608-11.776    c3.584-3.584,7.68-5.12,12.288-5.632l11.264-0.512c9.216,0,16.896,7.68,16.896,16.896l1.024,173.056    C148.736,204.8,147.2,208.896,144.128,211.968z" fill="#595959"/>
	</g>
</g>
<g>
</g>
<g>
</g>
<g>
</g>
<g>
</g>
<g>
</g>
<g>
</g>
<g>
</g>
<g>
</g>
<g>
</g>
<g>
</g>
<g>
</g>
<g>
</g>
<g>
</g>
<g>
</g>
<g>
</g>
</svg>
