<?xml version="1.0" encoding="iso-8859-1"?>
<!-- Generator: Adobe Illustrator 19.0.0, SVG Export Plug-In . SVG Version: 6.00 Build 0)  -->
<svg xmlns="http://www.w3.org/2000/svg" xmlns:xlink="http://www.w3.org/1999/xlink" version="1.1" id="Capa_1" x="0px" y="0px" viewBox="0 0 412.232 412.232" style="enable-background:new 0 0 412.232 412.232;" xml:space="preserve" width="512px" height="512px">
<g>
	<g>
		<path d="M323.593,22.088c-1.024-2.56-2.048-5.12-3.584-7.68c-4.096-6.144-10.24-10.24-17.408-11.264l-11.264-2.56    c-7.168-1.536-14.336,0-20.48,4.096c-6.144,4.096-10.24,10.24-11.264,17.408l-32.256,169.984c-1.536,7.168,0,14.336,4.096,20.48    c4.096,6.144,10.24,10.24,17.408,11.264l10.752,2.048c1.536,0.512,3.584,0.512,5.12,0.512c8.704,0,16.384-4.096,21.504-10.752    c2.56,0,5.12-0.512,7.68-1.024l-4.096,23.552c-1.536,8.704,3.072,17.408,10.752,21.504l-26.624,146.432    c-0.512,2.56,1.536,5.632,4.096,6.144c0.512,0,0.512,0,1.024,0c2.56,0,4.608-1.536,5.12-4.096l26.624-146.432    c8.704-0.512,16.384-7.168,17.92-15.872l8.704-48.128c20.992-14.848,36.352-37.888,41.472-65.024    C387.593,87.624,364.553,42.056,323.593,22.088z M282.121,203.848c-2.048,8.192-10.752,14.336-19.968,12.8l-10.752-2.048    c-9.216-1.536-15.36-10.752-13.312-19.968l32.256-169.984c1.024-4.608,3.584-8.192,7.168-10.752    c3.072-2.048,6.144-3.072,9.216-3.072c1.024,0,2.048,0,3.072,0.512l11.264,2.56c4.608,1.024,8.192,3.584,10.752,7.168    s3.584,8.192,2.56,12.8L282.121,203.848z M318.985,243.784c-1.024,5.12-6.144,8.704-11.264,7.68s-8.704-6.144-7.68-11.264    l5.12-27.648c7.168-2.048,14.336-4.608,20.992-8.192L318.985,243.784z M369.161,130.632c-7.168,39.424-38.4,69.12-77.312,74.752    v-0.512l32.256-169.984v-0.512C357.897,53.32,376.329,92.232,369.161,130.632z" fill="#595959"/>
	</g>
</g>
<g>
	<g>
		<path d="M187.913,228.424L147.465,59.976c-1.536-7.168-6.144-12.8-12.288-16.896c-6.144-3.584-13.312-5.12-20.48-3.072    l-10.24,3.584c-10.24,2.56-17.92,10.752-19.968,19.968C44.553,85.576,23.561,131.656,34.313,176.2    c6.144,26.624,22.528,48.64,44.544,62.976l10.752,47.616c1.024,5.12,4.096,9.728,8.704,12.288    c3.072,2.048,6.144,3.072,9.728,3.072l25.088,105.984c0.512,2.56,2.56,4.096,5.12,4.096c0.512,0,1.024,0,1.024,0    c2.56-0.512,4.608-3.584,3.584-6.144l-25.088-105.984c7.68-4.096,11.776-12.8,9.728-22.016l-5.632-23.04    c2.56,0.512,5.12,0.512,7.68,0.512c5.12,6.144,12.8,9.728,20.992,9.728c2.048,0,4.096,0,6.656-1.024l10.752-3.072    c7.168-1.536,12.8-6.144,16.896-12.288C188.425,242.76,189.961,235.592,187.913,228.424z M111.113,291.4    c-2.56,0.512-5.12,0-7.168-1.024c-2.048-1.536-3.584-3.584-4.096-6.144l-9.216-38.4c6.656,3.072,13.824,5.632,20.992,7.168    l6.656,27.136C119.305,285.256,116.233,290.376,111.113,291.4z M124.937,244.808c-38.912-3.584-71.68-31.744-80.896-70.656    c-8.704-38.4,7.68-77.824,39.936-98.816v0.512l40.96,168.448V244.808z M176.649,244.296c-2.56,4.096-6.144,6.656-10.24,7.68    l-10.752,2.56c-9.216,2.048-17.92-3.584-20.48-12.288L94.217,73.8c-2.048-9.216,3.584-17.92,12.8-20.48l10.752-2.56    c1.536-0.512,2.56-0.512,4.096-0.512c3.072,0,6.144,1.024,8.704,2.56c4.096,2.56,6.656,6.144,7.68,10.24l40.448,168.448    C179.721,236.104,179.209,240.2,176.649,244.296z" fill="#595959"/>
	</g>
</g>
<g>
</g>
<g>
</g>
<g>
</g>
<g>
</g>
<g>
</g>
<g>
</g>
<g>
</g>
<g>
</g>
<g>
</g>
<g>
</g>
<g>
</g>
<g>
</g>
<g>
</g>
<g>
</g>
<g>
</g>
</svg>
