<?xml version="1.0" encoding="iso-8859-1"?>
<!-- Generator: Adobe Illustrator 18.1.1, SVG Export Plug-In . SVG Version: 6.00 Build 0)  -->
<svg xmlns="http://www.w3.org/2000/svg" xmlns:xlink="http://www.w3.org/1999/xlink" version="1.1" id="Capa_1" x="0px" y="0px" viewBox="0 0 205.39 205.39" style="enable-background:new 0 0 205.39 205.39;" xml:space="preserve" width="512px" height="512px">
<g>
	<path d="M142.828,48.544V42.42c0-10.783-8.775-19.569-19.569-19.569h-4.831v-7.405   C118.428,6.932,111.496,0,102.974,0C94.46,0,87.528,6.932,87.528,15.446v7.405h-5.272c-10.783,0-19.569,8.786-19.569,19.569v6.02   c-5.397,3.947-8.607,10.264-8.607,16.946v119.018c0,11.57,9.416,20.986,20.986,20.986h55.247c11.581,0,20.997-9.416,20.997-20.986   V65.386C151.31,58.768,148.139,52.491,142.828,48.544z M82.256,27.711h10.121V15.446c0-5.844,4.756-10.586,10.597-10.586   c5.844,0,10.597,4.746,10.597,10.586v12.265h9.688c8.11,0,14.72,6.599,14.72,14.709v4.882H67.547V42.42   C67.547,34.31,74.143,27.711,82.256,27.711z M146.461,89.471v23.008h-28.602v4.846h28.602v21.151h-28.602v4.846h28.602v23.631   h-28.602v4.849h28.602V184.4c0,8.897-7.251,16.141-16.151,16.141H75.066c-8.897,0-16.141-7.24-16.141-16.141V65.386   c0-5.272,2.602-10.214,6.95-13.238h73.653c4.341,3.024,6.932,7.967,6.932,13.238v19.236h-28.602v4.849H146.461z" fill="#595959"/>
</g>
<g>
</g>
<g>
</g>
<g>
</g>
<g>
</g>
<g>
</g>
<g>
</g>
<g>
</g>
<g>
</g>
<g>
</g>
<g>
</g>
<g>
</g>
<g>
</g>
<g>
</g>
<g>
</g>
<g>
</g>
</svg>
