<?xml version="1.0" encoding="iso-8859-1"?>
<!-- Generator: Adobe Illustrator 19.0.0, SVG Export Plug-In . SVG Version: 6.00 Build 0)  -->
<svg xmlns="http://www.w3.org/2000/svg" xmlns:xlink="http://www.w3.org/1999/xlink" version="1.1" id="Layer_1" x="0px" y="0px" viewBox="0 0 512 512" style="enable-background:new 0 0 512 512;" xml:space="preserve" width="512px" height="512px">
<g>
	<g>
		<g>
			<path d="M469.333,106.667H362.667V85.333c0-23.531-19.135-42.667-42.667-42.667H192c-23.531,0-42.667,19.135-42.667,42.667     v21.333H42.667C19.135,106.667,0,125.802,0,149.333v277.333c0,23.531,19.135,42.667,42.667,42.667h426.667     c23.531,0,42.667-19.135,42.667-42.667V149.333C512,125.802,492.865,106.667,469.333,106.667z M170.667,85.333     C170.667,73.573,180.24,64,192,64h128c11.76,0,21.333,9.573,21.333,21.333v21.333H170.667V85.333z M490.667,426.667     c0,11.76-9.573,21.333-21.333,21.333H42.667c-11.76,0-21.333-9.573-21.333-21.333V149.333c0-11.76,9.573-21.333,21.333-21.333     h426.667c11.76,0,21.333,9.573,21.333,21.333V426.667z" fill="#595959"/>
			<path d="M352,256h-53.333v-53.333c0-5.896-4.771-10.667-10.667-10.667h-64c-5.896,0-10.667,4.771-10.667,10.667V256H160     c-5.896,0-10.667,4.771-10.667,10.667v64c0,5.896,4.771,10.667,10.667,10.667h53.333v53.333c0,5.896,4.771,10.667,10.667,10.667     h64c5.896,0,10.667-4.771,10.667-10.667v-53.333H352c5.896,0,10.667-4.771,10.667-10.667v-64     C362.667,260.771,357.896,256,352,256z M341.333,320H288c-5.896,0-10.667,4.771-10.667,10.667V384h-42.667v-53.333     c0-5.896-4.771-10.667-10.667-10.667h-53.333v-42.667H224c5.896,0,10.667-4.771,10.667-10.667v-53.333h42.667v53.333     c0,5.896,4.771,10.667,10.667,10.667h53.333V320z" fill="#595959"/>
		</g>
	</g>
</g>
<g>
</g>
<g>
</g>
<g>
</g>
<g>
</g>
<g>
</g>
<g>
</g>
<g>
</g>
<g>
</g>
<g>
</g>
<g>
</g>
<g>
</g>
<g>
</g>
<g>
</g>
<g>
</g>
<g>
</g>
</svg>
