<?xml version="1.0" encoding="iso-8859-1"?>
<!-- Generator: Adobe Illustrator 19.0.0, SVG Export Plug-In . SVG Version: 6.00 Build 0)  -->
<svg xmlns="http://www.w3.org/2000/svg" xmlns:xlink="http://www.w3.org/1999/xlink" version="1.1" id="Layer_1" x="0px" y="0px" viewBox="0 0 511.999 511.999" style="enable-background:new 0 0 511.999 511.999;" xml:space="preserve" width="512px" height="512px">
<g>
	<g>
		<path d="M332.755,299.591c-9.639,0-19.182,2.057-27.932,5.989l-88.14-88.141L189.9,0h-47.166v143.489L37.174,37.93L3.822,71.282    l138.91,177.939v130.66c-26.532,9.77-44.579,35.248-44.579,63.957c0,37.584,30.577,68.161,68.161,68.161    c37.584,0,68.161-30.577,68.161-68.161c0-28.505-17.89-53.925-44.188-63.806v-83.537l16.611-16.888l63.977,59.572    c-4.123,8.924-6.281,18.686-6.281,28.573c0,37.584,30.577,68.161,68.161,68.161c37.584,0,68.161-30.577,68.161-68.161    C400.916,330.168,370.339,299.591,332.755,299.591z M24.944,72.578l12.23-12.231l105.56,105.56v57.554L24.944,72.578z     M174.436,290.007v101.811l5.818,1.605c22.592,6.232,38.371,26.964,38.371,50.417c0,28.843-23.466,52.31-52.31,52.31    s-52.31-23.466-52.31-52.31c0-23.622,15.918-44.393,38.709-50.513l5.87-1.577V15.851h17.296l29.849,242.339L174.436,290.007z     M332.755,420.062c-28.843,0-52.31-23.466-52.31-52.31c0-9.233,2.451-18.32,7.088-26.278l3.189-5.473l-72.703-67.698l4.38-4.453    l-2.567-20.842l82.084,82.084l5.239-2.949c7.786-4.381,16.639-6.698,25.601-6.698c28.843,0,52.31,23.466,52.31,52.31    S361.598,420.062,332.755,420.062z" fill="#595959"/>
	</g>
</g>
<g>
	<g>
		<path d="M332.755,333.408c-18.938,0-34.345,15.408-34.345,34.345c0,18.937,15.407,34.345,34.345,34.345    s34.345-15.408,34.345-34.345C367.099,348.815,351.693,333.408,332.755,333.408z M332.755,386.246    c-10.197,0-18.493-8.297-18.493-18.493s8.297-18.493,18.493-18.493s18.493,8.297,18.493,18.493S342.952,386.246,332.755,386.246z" fill="#595959"/>
	</g>
</g>
<g>
	<g>
		<path d="M166.315,409.494c-18.938,0-34.345,15.408-34.345,34.345c0,18.937,15.406,34.345,34.345,34.345    s34.345-15.408,34.345-34.345C200.66,424.902,185.253,409.494,166.315,409.494z M166.315,462.332    c-10.197,0-18.493-8.297-18.493-18.493s8.297-18.493,18.493-18.493s18.493,8.297,18.493,18.493S176.512,462.332,166.315,462.332z" fill="#595959"/>
	</g>
</g>
<g>
	<g>
		<rect x="172.653" y="231.43" width="15.851" height="15.851" fill="#595959"/>
	</g>
</g>
<g>
	<g>
		<path d="M373.528,0c-26.562,0-48.17,21.61-48.17,48.17v237.155h15.851V48.17c0-17.821,14.499-32.319,32.319-32.319h118.798v16.38    H372.911v45.441h119.414v15.851H372.911v45.441h119.414v15.851H372.911v45.441h119.414v15.851H372.911v45.441h119.414v15.851    H370.799l-0.001,25.362l15.851,0.001l0.001-9.511h121.526v-47.554H388.763V231.96h119.414v-47.554H388.763v-13.738h119.414    v-47.554H388.763v-13.738h119.414V61.821H388.763V48.084h119.414v-0.001V0H373.528z" fill="#595959"/>
	</g>
</g>
<g>
	<g>
		<path d="M372.911,432.743v37.515c0,8.74-7.111,15.851-15.851,15.851c-8.74,0-15.851-7.111-15.851-15.851v-23.071h-15.851v23.071    c0,17.481,14.222,31.703,31.703,31.703c17.481,0,31.703-14.222,31.703-31.703v-37.515H372.911z" fill="#595959"/>
	</g>
</g>
<g>
</g>
<g>
</g>
<g>
</g>
<g>
</g>
<g>
</g>
<g>
</g>
<g>
</g>
<g>
</g>
<g>
</g>
<g>
</g>
<g>
</g>
<g>
</g>
<g>
</g>
<g>
</g>
<g>
</g>
</svg>
