<?xml version="1.0" encoding="iso-8859-1"?>
<!-- Generator: Adobe Illustrator 19.0.0, SVG Export Plug-In . SVG Version: 6.00 Build 0)  -->
<svg xmlns="http://www.w3.org/2000/svg" xmlns:xlink="http://www.w3.org/1999/xlink" version="1.1" id="Layer_1" x="0px" y="0px" viewBox="0 0 511.817 511.817" style="enable-background:new 0 0 511.817 511.817;" xml:space="preserve" width="512px" height="512px">
<g>
	<g>
		<path d="M487.955,28.191c-11.093-8.213-25.173-10.88-37.76-7.04l-86.293,25.28c-0.64,0.213-1.173,0.533-1.813,0.853L198.248,4.937    c-41.707-11.307-85.12-2.987-118.827,22.827c-33.707,25.813-53.44,65.707-53.76,109.44c0,0.32,0,0.533,0,0.853    c0,33.6,13.867,66.133,39.147,91.413c17.173,17.173,27.627,33.92,32.747,52.587l33.6,122.56    c2.133,7.68,6.293,14.507,12.053,19.947c-0.107,0.427-0.213,0.96-0.32,1.493v18.667c0,9.387,3.84,18.453,10.667,24.96v5.547    c0,7.253-11.84,15.04-20.16,15.04h-2.347c-5.653-0.213-10.773-3.84-12.693-9.173l-63.04-160.32    c-3.413-8.64-9.067-14.827-16.533-17.92c-7.573-3.2-16.427-2.987-25.493,0.64c-5.44,2.133-8.533,8.213-6.507,13.76    c2.133,5.76,8.533,8.533,14.08,6.187c3.84-1.6,7.253-1.92,9.493-0.96c2.027,0.853,3.733,2.88,5.013,6.187l63.04,160.427    c5.44,13.76,18.133,22.72,32.533,22.72h2.453c17.92,0,38.293-13.867,40.96-32.32c1.173,0.213,2.347,0.32,3.52,0.32h5.76    c12.8,0,23.253-10.453,23.253-23.253v-19.84c3.307-0.96,5.867-3.52,7.04-6.827l13.333-40.427c5.227-15.467,6.613-32,4.16-48.213    h2.133c8.853,0,16-7.147,16-16v-32c0-8.853-7.147-16-16-16h-26.773c-1.173,0-2.347,0.32-3.413,0.64    c-0.853-2.347-1.92-4.587-2.56-7.04l-0.427-1.493c-0.747-2.133-0.64-4.48,0.32-6.507c0.533-0.853,1.387-1.493,2.453-1.707    c41.707-11.093,144.96-39.36,163.627-44.587l83.307,24.427c3.84,1.173,7.787,1.707,11.733,1.707c9.387,0,18.56-3.093,26.133-8.747    c11.093-8,17.6-20.907,17.707-34.56V62.751C505.661,48.991,499.048,36.191,487.955,28.191z M228.328,298.271v21.333h-2.453    c-2.773-7.147-6.293-13.973-10.667-20.267l-0.64-1.067H228.328z M185.661,456.244c0,1.067-0.853,2.027-1.92,2.027h-5.76    c-7.573,0-13.653-6.08-13.653-13.653v-7.68h21.333V456.244z M356.328,197.151c-27.52,7.467-119.787,32.853-158.507,43.093    c-6.507,1.707-12.16,5.867-15.467,11.733c-3.733,6.933-4.587,15.147-2.347,22.827l0.427,1.493    c2.88,10.347,7.36,20.16,13.44,29.013l3.733,5.76c4.053,5.973,7.253,12.587,9.6,19.413c0.107,1.813,0.64,3.627,1.6,5.12    c4.053,15.36,3.52,31.573-1.493,46.72l-11.093,33.28h-23.04c-9.92-0.213-18.667-6.827-21.333-16.427l-33.6-122.56    c-6.187-22.08-18.667-42.347-38.293-61.973c-21.013-21.013-32.64-47.787-32.96-75.307c0-0.32,0-0.64,0-0.96    c0-37.44,16.533-71.573,45.333-93.653c28.48-21.76,65.067-28.693,100.48-19.093l163.52,42.133V197.151z M484.328,198.964    c-0.32,12.373-10.667,22.187-23.04,21.867c-1.707,0-3.413-0.32-5.013-0.747l-78.613-23.04V64.457l78.613-23.04    c6.507-1.813,13.547-0.427,18.987,3.733c5.653,4.053,8.96,10.453,9.067,17.387V198.964z" fill="#595959"/>
	</g>
</g>
<g>
</g>
<g>
</g>
<g>
</g>
<g>
</g>
<g>
</g>
<g>
</g>
<g>
</g>
<g>
</g>
<g>
</g>
<g>
</g>
<g>
</g>
<g>
</g>
<g>
</g>
<g>
</g>
<g>
</g>
</svg>
