<?xml version="1.0" encoding="iso-8859-1"?>
<!-- Generator: Adobe Illustrator 17.1.0, SVG Export Plug-In . SVG Version: 6.00 Build 0)  -->
<!DOCTYPE svg PUBLIC "-//W3C//DTD SVG 1.1//EN" "http://www.w3.org/Graphics/SVG/1.1/DTD/svg11.dtd">
<svg xmlns="http://www.w3.org/2000/svg" xmlns:xlink="http://www.w3.org/1999/xlink" version="1.1" id="Capa_1" x="0px" y="0px" viewBox="0 0 182.035 182.035" style="enable-background:new 0 0 182.035 182.035;" xml:space="preserve" width="512px" height="512px">
<path d="M17.494,173.886c-2.37,0-4.599-0.923-6.275-2.6L2.6,162.667c-1.677-1.677-2.6-3.905-2.6-6.275  c0-2.371,0.923-4.6,2.6-6.276L107.611,45.105L85.105,22.6c-2.647-2.648-2.647-6.957-0.001-9.605l2.857-2.855  c1.362-1.364,3.194-2.078,5.147-1.981l34.345,1.749c1.686,0.087,3.269,0.791,4.458,1.982l48.133,48.133  c1.283,1.282,1.99,2.987,1.99,4.802c0,1.815-0.707,3.521-1.99,4.804l-19.153,19.153c-1.283,1.283-2.989,1.989-4.803,1.989  s-3.52-0.706-4.802-1.989l-22.506-22.505L23.77,171.287C22.094,172.963,19.865,173.886,17.494,173.886z M111.146,48.64  L6.135,153.652C5.402,154.384,5,155.357,5,156.392c0,1.034,0.402,2.008,1.135,2.74l8.619,8.619c1.465,1.465,4.017,1.463,5.479,0  L125.245,62.74L111.146,48.64z M92.846,13.152c-0.559,0-1.017,0.19-1.348,0.521l-2.857,2.856c-0.698,0.699-0.698,1.836,0.001,2.535  l66.181,66.181c0.678,0.676,1.856,0.677,2.534-0.001l19.153-19.153c0.339-0.339,0.525-0.789,0.525-1.268  c0-0.478-0.187-0.928-0.525-1.266l-48.134-48.135c-0.314-0.314-0.732-0.5-1.178-0.522l-34.343-1.749  C92.852,13.152,92.849,13.152,92.846,13.152z" fill="#595959"/>
<g>
</g>
<g>
</g>
<g>
</g>
<g>
</g>
<g>
</g>
<g>
</g>
<g>
</g>
<g>
</g>
<g>
</g>
<g>
</g>
<g>
</g>
<g>
</g>
<g>
</g>
<g>
</g>
<g>
</g>
</svg>
