<?xml version="1.0" encoding="utf-8"?>
<!-- Generator: Adobe Illustrator 19.1.0, SVG Export Plug-In . SVG Version: 6.00 Build 0)  -->
<svg xmlns="http://www.w3.org/2000/svg" xmlns:xlink="http://www.w3.org/1999/xlink" version="1.1" id="Layer_1" x="0px" y="0px" viewBox="0 0 64 64" enable-background="new 0 0 64 64" xml:space="preserve" width="512px" height="512px">
<path id="Toy-horse_2_" d="M63.8101845,41.2801247c-0.3227997-0.4473-0.9492989-0.5479012-1.3959999-0.2246017  c-1.6596985,1.2004013-3.3337975,2.3215027-5.020298,3.3712997c-1.3816986-1.6161995-2.6492996-3.1474991-3.8727989-4.6281967  c-2.547802-3.0848999-4.7749023-5.780201-7.0219994-7.9609013l0.1679993-0.3154011  c0.9375-1.7616997,0.8857002-3.9199982-0.1323013-5.6299c-0.8423004-1.4257984-1.7285004-3.4628983-1.5575981-5.5282993  c0.3237,0.4032993,0.7528992,0.7460995,1.3382988,0.8973999c1.1651001,0.2989006,1.8051987,0.0986996,2.4117012-0.1532993  c0.3255997-0.1348,0.4482002-0.1855011,0.8759003-0.0741997c0.5869064,0.1504002,0.8520966,0.3739986,1.133297,0.6103001  c0.347702,0.2919998,0.8731003,0.7343998,1.7192993,0.5527992c0.9912033-0.2129002,2.1601028-1.6767998,2.7685013-2.5303001  c0.0591011-0.0830002,0.1054993-0.174799,0.1371994-0.2724991c0.0639992-0.1972008,0.3594017-1.2285004-0.1063881-2.1005001  c-0.2485123-0.4659004-0.6597099-0.7919998-1.1909103-0.9434013c-0.803299-0.2284985-3.4408989-2.5751991-3.4091988-3.8446989  c0.0224991-0.8731003-0.3047028-1.6582003-0.9453011-2.2705002c-0.8051987-0.7695999-2.0307999-1.1573-2.9561005-1.1827002  c-0.1058998-0.3037004-0.1924019-0.9139996-0.1924019-1.4277c0-0.4316001-0.2762985-0.8154001-0.6854973-0.9502001  c-0.408699-0.1387-0.8599014,0.0049-1.1166992,0.3516002l-1.3115005,1.7635999  c-0.9785004-0.165-2.7471008-0.2372999-4.1576996,0.9629002c-0.1459999,0.125-0.3472023,0.2676001-0.5850029,0.4394999  c-2.2431984,1.6182003-7.386198,5.3301001-5.9804993,15.6387005c-1.6053982,0.0194988-3.3158989,0.2187004-5.1918983,0.602499  c-6.1968994,1.2698002-10.1217003,2.9159012-12.7525005,5.3882008c-0.0215998-0.0056-0.0381994-0.0205002-0.0604992-0.0249004  c-0.1001005-0.0205002-9.8159008-1.7852001-12.8924999,8.8641987c-0.1529,0.5303001,0.1528001,1.0850029,0.6835999,1.2383003  c0.0922,0.0264015,0.1860001,0.0391006,0.2778001,0.0391006c0.4340999,0,0.8334999-0.2841988,0.9603999-0.7226982  c1.9952002-6.9076996,7.1154995-7.6140022,9.4321995-7.5604019c-2.0389996,2.7993011-2.9184999,6.2565002-4.0771999,10.8944016  c-0.6823997,2.7314987-1.4561996,5.8288994-2.6307993,9.3960991c-1.7297921-0.3451004-3.4666002-0.7462006-5.2119999-1.2173996  c-0.5340999-0.142601-1.0825,0.1718979-1.226,0.705101c-0.1441,0.5331993,0.1714,1.0819969,0.7046,1.2265968  c6.7152996,1.8125,13.3203001,2.717701,19.8003006,2.717701c15.0980988,0,29.5140991-4.9139977,43.0463066-14.7010994  C64.033783,42.3523254,64.1338882,41.7273254,63.8101845,41.2801247z M11.0440874,45.0340233  c2.4545002-9.8251991,3.4707003-13.8915997,16.8895988-16.6415997c2.1943092-0.4482994,4.1333103-0.6230984,5.9159985-0.5439987  c0.3106003,0.0175991,0.597702-0.1103001,0.7974014-0.3388004c0.2006989-0.2285004,0.2865982-0.5352001,0.2339096-0.8339996  c-1.7661095-9.9843998,2.7997894-13.2783003,4.9935913-14.8613005c0.2905006-0.21,0.533699-0.3867998,0.7118988-0.5381002  c1.1519012-0.9814997,2.9458008-0.4228992,2.9585075-0.4169998c0.4101906,0.1338005,0.8603935-0.0058994,1.117691-0.3526001  l0.3462029-0.4647999c0.1127968,0.2285004,0.2538986,0.4355001,0.4291992,0.5986004  c0.3179092,0.2968998,0.7255974,0.4473,1.1450005,0.4120998c0.4193993-0.0087004,1.2739067,0.1787996,1.7441978,0.6280003  c0.2318993,0.2216997,0.3363991,0.4677,0.3286018,0.7743998c-0.0615997,2.4531002,3.4598999,5.4208994,4.8344002,5.7792997  c0.0317993,0.0674,0.0273972,0.2549-0.0023994,0.4199009c-0.4971008,0.6718998-1.1030006,1.3379002-1.3730011,1.5380993  c-0.0288925-0.0244007-0.0586014-0.0508003-0.0914001-0.0781002c-0.3558998-0.299799-0.8944931-0.7530003-1.9209023-1.0165997  c-1.0765877-0.2803001-1.6927986-0.0235004-2.1415901,0.1630993c-0.3447075,0.1435013-0.5341072,0.2216015-1.1459999,0.0634003  c-0.3403091-0.0868988-0.6416092-0.8486004-0.8032074-1.2588005c-0.2055016-0.5204983-0.5083008-1.3241997-1.3623009-1.2538986  c-0.9243011,0.0576-1.1772003,1.0380993-1.4453011,2.0781994c-0.785099,3.0478001,0.4409027,6.0438995,1.6104012,8.0233994  c0.6645012,1.1152,0.6977005,2.5215015,0.08741,3.6689014l-0.5259094,0.9853992  c-0.2134018,0.4004002-0.1309013,0.8944988,0.2015991,1.2031002c2.3433113,2.1786995,4.6875,5.0166016,7.4014015,8.3017998  c1.1660995,1.4109001,2.3727989,2.8685989,3.6816978,4.403801c-0.7160988,0.4216003-1.4335976,0.8337975-2.1540985,1.2285004  c-8.5275993-6.1464996-16.425499-8.5487022-23.4616909-7.1371994c-6.9446087,1.3927994-13.1665096,6.513298-18.494709,15.2179985  c-1.0293999-0.1328011-2.0623999-0.2930984-3.0976-0.4714012C9.6014872,50.7895241,10.3701878,47.7322235,11.0440874,45.0340233z   M13.7599955,55.0339241c4.9071913-7.7206993,10.5132914-12.2692986,16.678093-13.5057983  c6.2565994-1.2553024,13.343998,0.8476982,21.0825005,6.2258987C39.5129967,53.8843231,26.8814869,56.3177261,13.7599955,55.0339241  z" fill="#595959"/>
<g>
</g>
<g>
</g>
<g>
</g>
<g>
</g>
<g>
</g>
<g>
</g>
<g>
</g>
<g>
</g>
<g>
</g>
<g>
</g>
<g>
</g>
<g>
</g>
<g>
</g>
<g>
</g>
<g>
</g>
</svg>
