<?xml version="1.0" encoding="iso-8859-1"?>
<!-- Generator: Adobe Illustrator 19.0.0, SVG Export Plug-In . SVG Version: 6.00 Build 0)  -->
<svg xmlns="http://www.w3.org/2000/svg" xmlns:xlink="http://www.w3.org/1999/xlink" version="1.1" id="Layer_1" x="0px" y="0px" viewBox="0 0 512 512" style="enable-background:new 0 0 512 512;" xml:space="preserve" width="512px" height="512px">
<g>
	<g>
		<path d="M483.06,123.711c4.27,0,7.731-3.461,7.731-7.731V7.731c0-4.27-3.461-7.731-7.731-7.731h-56.142    c-4.27,0-7.731,3.461-7.731,7.731v37.183H92.812V7.731c0-4.27-3.461-7.731-7.731-7.731H28.94c-4.27,0-7.731,3.461-7.731,7.731    v496.539c0,4.27,3.461,7.731,7.731,7.731h56.142c4.27,0,7.731-3.461,7.731-7.731v-37.183h326.376v37.183    c0,4.27,3.461,7.731,7.731,7.731h56.142c4.27,0,7.731-3.461,7.731-7.731V144.526c0-4.27-3.461-7.731-7.731-7.731    c-4.27,0-7.731,3.461-7.731,7.731v352.013h-40.681V15.461h40.681v100.52C475.33,120.25,478.791,123.711,483.06,123.711z     M77.351,496.539H36.67V15.461h40.68V496.539z M419.188,451.626H92.812v-17.741h326.376V451.626z M419.188,327.122H177.51    c-4.27,0-7.731,3.461-7.731,7.731c0,4.27,3.461,7.731,7.731,7.731h241.678v75.84H92.812v-75.84h51.396    c4.27,0,7.731-3.461,7.731-7.731c0-4.27-3.461-7.731-7.731-7.731H92.812v-17.741h326.376V327.122z M419.188,293.92H92.812v-75.84    h326.376V293.92z M419.188,202.619H92.812v-17.741h326.376V202.619z M419.188,78.115h-56.741c-4.27,0-7.731,3.461-7.731,7.731    c0,4.27,3.461,7.731,7.731,7.731h56.741v75.84H92.812v-75.84h242.876c4.27,0,7.731-3.461,7.731-7.731    c0-4.27-3.461-7.731-7.731-7.731H92.812V60.374h326.376V78.115z" fill="#595959"/>
	</g>
</g>
<g>
</g>
<g>
</g>
<g>
</g>
<g>
</g>
<g>
</g>
<g>
</g>
<g>
</g>
<g>
</g>
<g>
</g>
<g>
</g>
<g>
</g>
<g>
</g>
<g>
</g>
<g>
</g>
<g>
</g>
</svg>
