<?xml version="1.0" encoding="iso-8859-1"?>
<!-- Generator: Adobe Illustrator 19.0.0, SVG Export Plug-In . SVG Version: 6.00 Build 0)  -->
<svg xmlns="http://www.w3.org/2000/svg" xmlns:xlink="http://www.w3.org/1999/xlink" version="1.1" id="Capa_1" x="0px" y="0px" viewBox="0 0 384.174 384.174" style="enable-background:new 0 0 384.174 384.174;" xml:space="preserve" width="512px" height="512px">
<g>
	<g>
		<path d="M127.319,231.086h-7.168V106.67c0-3.072-2.048-5.12-5.12-5.12h-5.12V18.606c0-6.144-3.072-11.776-8.192-15.36    c-5.12-3.584-11.776-4.096-17.408-2.048L66.903,8.366c-10.752,4.096-17.408,14.336-17.408,26.112v67.072h-5.12    c-3.072,0-5.12,2.048-5.12,5.12v123.904h-7.168c-3.072,0-5.12,2.048-5.12,5.12v143.36c0,3.072,2.048,5.12,5.12,5.12h95.232    c3.072,0,5.12-2.048,5.12-5.12v-143.36C132.439,233.134,130.391,231.086,127.319,231.086z M59.223,34.478    c0-7.168,4.608-13.824,11.264-16.384l17.408-7.168c2.56-1.024,5.632-0.512,7.68,1.024c2.56,1.536,3.584,4.096,3.584,7.168v82.944    H59.223V34.478z M48.983,111.79h60.928v118.784H48.983V111.79z M122.199,374.446H36.695v-133.12h85.504V374.446z" fill="#595959"/>
	</g>
</g>
<g>
	<g>
		<path d="M306.519,185.518c-7.68-4.096-12.8-12.8-13.312-22.016h3.072c3.072,0,5.12-2.048,5.12-5.12V44.206    c0-11.264-9.216-20.48-20.48-20.48h-47.104c-11.264,0-20.48,9.216-20.48,20.48v114.176c0,3.072,2.048,5.12,5.12,5.12h3.584    c-0.512,9.216-5.632,17.408-13.824,22.016c-33.792,18.944-52.736,55.296-50.176,93.696c2.56,35.84,25.088,68.096,57.856,83.456    v16.384c0,3.072,2.048,5.12,5.12,5.12h73.216c3.072,0,5.12-2.048,5.12-5.12v-15.872c35.328-16.384,57.856-51.712,57.856-90.624    C357.207,236.718,337.751,203.438,306.519,185.518z M223.063,44.206c0-5.632,4.608-10.24,10.24-10.24h47.616    c5.632,0,10.24,4.608,10.24,10.24v109.056h-68.096V44.206z M292.183,354.99c-2.048,1.024-3.072,2.56-3.072,4.608v14.336h-63.488    v-14.336c0-2.048-1.024-4.096-3.072-4.608c-31.232-13.312-52.224-43.008-54.784-76.288c-2.56-34.816,14.848-67.072,45.056-83.968    c11.264-6.144,17.92-17.92,18.944-30.72h20.48v126.464c0,3.072,2.048,5.12,5.12,5.12c3.072,0,5.12-2.048,5.12-5.12V164.014h20.48    c0.512,12.8,7.68,24.576,18.432,30.72c28.16,15.872,45.568,45.568,45.568,77.824C346.967,308.398,325.463,341.166,292.183,354.99z    " fill="#595959"/>
	</g>
</g>
<g>
</g>
<g>
</g>
<g>
</g>
<g>
</g>
<g>
</g>
<g>
</g>
<g>
</g>
<g>
</g>
<g>
</g>
<g>
</g>
<g>
</g>
<g>
</g>
<g>
</g>
<g>
</g>
<g>
</g>
</svg>
