<?xml version="1.0" encoding="iso-8859-1"?>
<!-- Generator: Adobe Illustrator 17.1.0, SVG Export Plug-In . SVG Version: 6.00 Build 0)  -->
<!DOCTYPE svg PUBLIC "-//W3C//DTD SVG 1.1//EN" "http://www.w3.org/Graphics/SVG/1.1/DTD/svg11.dtd">
<svg xmlns="http://www.w3.org/2000/svg" xmlns:xlink="http://www.w3.org/1999/xlink" version="1.1" id="Capa_1" x="0px" y="0px" viewBox="0 0 194.678 194.678" style="enable-background:new 0 0 194.678 194.678;" xml:space="preserve" width="512px" height="512px">
<path d="M57.29,194.678c-3.989,0-7.809-1.458-10.616-4.267L4.267,148.004c-4.625-4.625-5.591-11.997-2.403-18.346  C7.689,118.059,19,99.865,39.808,79.057C58.866,59.998,73.144,52.684,85.742,46.23c9.205-4.716,17.154-8.788,25.064-16.698  l12.177-12.177c8.144-8.144,20.793-8.744,28.199-1.34l1.792,1.792l15.811-15.811c2.66-2.662,6.992-2.661,9.654-0.001l14.243,14.244  h0.001c2.66,2.663,2.66,6.993-0.001,9.654l-15.811,15.811l1.792,1.792c3.651,3.651,5.355,8.577,5.17,13.609  c0.002,0.041,0.003,0.082,0.003,0.123c0,0.126-0.01,0.249-0.027,0.37c-0.308,5.017-2.487,10.1-6.485,14.097l-12.177,12.177  c-7.91,7.91-11.982,15.859-16.698,25.064c-6.454,12.598-13.769,26.876-32.827,45.934c-20.808,20.808-39.002,32.119-50.602,37.944  C62.526,194.067,59.872,194.678,57.29,194.678z M71.63,59.729c-8.256,5.143-17.489,12.065-28.287,22.863  c-20.336,20.336-31.352,38.04-37.011,49.311c-2.219,4.418-1.628,9.468,1.47,12.566l42.407,42.407  c3.098,3.098,8.147,3.688,12.566,1.47c11.271-5.66,28.975-16.675,49.311-37.011c18.502-18.502,25.627-32.409,31.912-44.679  c4.908-9.58,9.147-17.854,17.613-26.319l12.177-12.177c2.448-2.448,4.022-5.409,4.694-8.432H71.63z M80.269,54.729h98.496  c-0.327-2.885-1.531-5.591-3.637-7.697L147.647,19.55c-5.455-5.452-14.933-4.855-21.129,1.34l-12.177,12.177  c-8.466,8.466-16.739,12.705-26.319,17.613C85.514,51.964,82.938,53.284,80.269,54.729z M156.509,21.342l16.827,16.827  l15.811-15.811c0.712-0.712,0.712-1.871-0.001-2.584L174.904,5.531c-0.713-0.711-1.871-0.711-2.584,0L156.509,21.342z   M56.215,162.438c-7.181,0-13.187-2.189-17.485-6.489c-6.657-6.657-8.256-17.408-4.5-30.272  c3.604-12.345,11.761-25.314,22.969-36.521C68.406,77.948,81.375,69.79,93.72,66.187c12.864-3.758,23.616-2.159,30.272,4.499l0,0  l0,0c6.657,6.656,8.256,17.408,4.499,30.272c-3.604,12.345-11.761,25.314-22.968,36.521c-11.207,11.208-24.177,19.364-36.521,22.969  C64.446,161.779,60.154,162.437,56.215,162.438z M106.499,69.195c-3.454,0-7.275,0.594-11.378,1.791  C83.57,74.359,71.357,82.067,60.734,92.69s-18.331,22.836-21.704,34.388c-3.221,11.031-2.071,20.029,3.235,25.336  c5.307,5.306,14.305,6.455,25.336,3.235c11.552-3.373,23.765-11.081,34.388-21.704s18.331-22.836,21.704-34.388  c3.221-11.031,2.071-20.029-3.235-25.336l0,0C117.124,70.888,112.334,69.195,106.499,69.195z" fill="#595959"/>
<g>
</g>
<g>
</g>
<g>
</g>
<g>
</g>
<g>
</g>
<g>
</g>
<g>
</g>
<g>
</g>
<g>
</g>
<g>
</g>
<g>
</g>
<g>
</g>
<g>
</g>
<g>
</g>
<g>
</g>
</svg>
