<?xml version="1.0" encoding="iso-8859-1"?>
<!-- Generator: Adobe Illustrator 19.0.0, SVG Export Plug-In . SVG Version: 6.00 Build 0)  -->
<svg xmlns="http://www.w3.org/2000/svg" xmlns:xlink="http://www.w3.org/1999/xlink" version="1.1" id="Capa_1" x="0px" y="0px" viewBox="0 0 404.48 404.48" style="enable-background:new 0 0 404.48 404.48;" xml:space="preserve" width="512px" height="512px">
<g>
	<g>
		<path d="M372.736,111.36h-31.744l-9.216-25.6c-4.096-12.8-15.872-22.016-29.696-22.016h-88.576    c-13.824,0-25.6,8.704-29.696,21.504l-9.728,25.6h-62.976V97.536h10.752c3.072,0,5.12-2.048,5.12-5.12V45.824    c0-3.072-2.048-5.12-5.12-5.12H40.96c-3.072,0-5.12,2.048-5.12,5.12v46.592c0,3.072,2.048,5.12,5.12,5.12h10.752v13.312H31.744    C14.336,110.848,0,125.184,0,142.592v189.44c0,17.408,14.336,31.744,31.744,31.744h340.992c17.408,0,31.744-14.336,31.744-31.744    v-189.44C403.968,125.696,390.144,111.36,372.736,111.36z M46.08,87.808V51.456h70.656v36.352H46.08z M100.864,98.048v13.312    H61.952V98.048C61.952,98.048,100.864,98.048,100.864,98.048z M393.728,332.544c0,11.776-9.728,21.504-21.504,21.504H31.232    c-11.776,0-21.504-9.728-21.504-21.504v-189.44c0-11.776,9.728-21.504,21.504-21.504h146.432c2.048,0,4.096-1.536,4.608-3.584    l10.752-29.184c2.56-8.704,10.752-14.336,19.968-14.336h88.576c9.216,0,16.896,5.632,19.968,14.848l10.752,29.184    c0.512,2.048,2.56,3.584,4.608,3.584h35.328c11.776,0,21.504,9.728,21.504,21.504V332.544z" fill="#595959"/>
	</g>
</g>
<g>
	<g>
		<path d="M310.272,113.92l-5.632-14.848c-2.56-7.68-9.728-12.8-17.408-12.8h-60.928c-8.192,0-15.36,5.12-17.408,12.8l-5.632,14.848    c-0.512,1.536-0.512,3.072,0.512,4.608c1.024,1.024,2.56,2.048,4.096,2.048h97.792c1.536,0,3.072-1.024,4.096-2.048    C310.784,116.992,310.784,115.456,310.272,113.92z M215.552,110.848l3.072-8.704c1.024-3.584,4.096-5.632,7.68-5.632h60.928    c3.584,0,6.656,2.56,8.192,6.144l3.072,8.192H215.552z" fill="#595959"/>
	</g>
</g>
<g>
	<g>
		<path d="M257.024,137.984c-54.784,0-99.84,45.056-99.84,99.84s44.544,99.328,99.328,99.328s99.328-44.544,99.328-99.328    C356.352,183.04,311.808,137.984,257.024,137.984z M257.024,326.912c-49.152,0-89.088-39.936-89.088-89.088    c0-49.152,39.936-89.088,89.088-89.088c49.152,0,89.088,39.936,89.088,89.088C346.112,286.976,306.176,326.912,257.024,326.912z" fill="#595959"/>
	</g>
</g>
<g>
	<g>
		<path d="M257.024,158.464c-43.52,0-79.36,35.328-79.36,79.36c0,43.52,35.328,79.36,79.36,79.36s79.36-35.84,79.36-79.36    C336.384,193.792,300.544,158.464,257.024,158.464z M257.024,306.944c-37.888,0-69.12-30.72-69.12-69.12    c0-37.888,30.72-69.12,69.12-69.12c38.4,0,69.12,30.72,69.12,69.12C326.144,275.712,294.912,306.944,257.024,306.944z" fill="#595959"/>
	</g>
</g>
<g>
	<g>
		<path d="M105.984,140.544H56.832c-3.072,0-5.12,2.048-5.12,5.12c0,3.072,2.048,5.12,5.12,5.12h49.152    c3.072,0,5.12-2.048,5.12-5.12C111.104,143.104,108.544,140.544,105.984,140.544z" fill="#595959"/>
	</g>
</g>
<g>
</g>
<g>
</g>
<g>
</g>
<g>
</g>
<g>
</g>
<g>
</g>
<g>
</g>
<g>
</g>
<g>
</g>
<g>
</g>
<g>
</g>
<g>
</g>
<g>
</g>
<g>
</g>
<g>
</g>
</svg>
