<?xml version="1.0" encoding="iso-8859-1"?>
<!-- Generator: Adobe Illustrator 19.0.0, SVG Export Plug-In . SVG Version: 6.00 Build 0)  -->
<svg xmlns="http://www.w3.org/2000/svg" xmlns:xlink="http://www.w3.org/1999/xlink" version="1.1" id="Capa_1" x="0px" y="0px" viewBox="0 0 376.832 376.832" style="enable-background:new 0 0 376.832 376.832;" xml:space="preserve" width="512px" height="512px">
<g>
	<g>
		<path d="M301.169,4.096c0-0.512-0.512-1.024-0.512-1.536V2.048c-0.512-0.512-1.024-1.024-1.536-1.536h-0.512    c-0.512,0-1.024-0.512-1.536-0.512h-0.512c-0.512,0-1.024,0-1.536,0c-5.632,2.56-140.8,57.344-174.592,123.904    c-27.648-11.776-53.76-17.408-55.296-17.92c-0.512,0-1.024,0-1.536,0c0,0,0,0-0.512,0c-0.512,0-1.536,0.512-2.048,1.024    c-0.512,0.512-1.024,1.024-1.024,1.536v0.512c0,0.512-0.512,1.024-0.512,1.536c-0.512,3.584-10.24,91.136,16.896,129.536    c9.728,14.336,24.576,23.552,41.984,26.624c3.584,0.512,7.68,1.024,11.264,1.024c13.312,0,26.112-4.096,36.864-11.776    c0,0,0.512,0,0.512-0.512v116.224c-2.048,3.072,0,5.12,3.072,5.12c3.072,0,5.12-2.048,5.12-5.12v-110.08    c12.288,5.12,25.6,7.68,38.4,7.68c37.376,0,73.216-20.48,91.136-55.808C339.057,145.408,302.705,9.728,301.169,4.096z     M284.785,15.36l-93.184,183.808c-0.512-11.776-4.608-23.552-11.776-33.792c-10.752-15.36-31.232-28.16-51.712-37.376    C155.249,76.8,249.969,30.72,284.785,15.36z M117.873,256.512c-14.336-2.56-26.624-10.24-35.328-22.528    c-18.432-26.624-17.92-82.432-16.384-108.544l88.064,124.416C143.473,256.512,130.673,258.56,117.873,256.512z M162.417,243.712    L74.865,119.296c25.088,7.168,77.824,24.576,96.768,51.712C188.017,194.048,183.409,225.792,162.417,243.712z M295.025,208.384    c-22.016,43.52-74.24,61.952-118.272,42.496L293.489,19.456C302.193,55.296,321.649,155.648,295.025,208.384z" fill="#595959"/>
	</g>
</g>
<g>
</g>
<g>
</g>
<g>
</g>
<g>
</g>
<g>
</g>
<g>
</g>
<g>
</g>
<g>
</g>
<g>
</g>
<g>
</g>
<g>
</g>
<g>
</g>
<g>
</g>
<g>
</g>
<g>
</g>
</svg>
