<?xml version="1.0" encoding="iso-8859-1"?>
<!-- Generator: Adobe Illustrator 19.1.0, SVG Export Plug-In . SVG Version: 6.00 Build 0)  -->
<svg xmlns="http://www.w3.org/2000/svg" xmlns:xlink="http://www.w3.org/1999/xlink" version="1.1" id="Capa_1" x="0px" y="0px" viewBox="0 0 540.079 540.079" style="enable-background:new 0 0 540.079 540.079;" xml:space="preserve" width="512px" height="512px">
<g>
	<g>
		<path d="M495.072,306.045H468.07V99.122c0.036-2.988-1.423-5.869-3.997-7.597L356.147,19.569c-1.458-0.99-3.205-1.566-5.095-1.566    H117.018c-24.808,0-45.007,20.199-45.007,45.007v243.035H45.007C20.199,306.045,0,326.244,0,351.052V477.07    c0,24.807,20.199,45.006,45.007,45.006h450.065c24.807,0,45.006-20.199,45.007-45.006V351.052    C540.079,326.244,519.88,306.045,495.072,306.045z M360.052,43.819l69.292,46.195h-42.288c-14.888,0-27.004-12.116-27.004-27.004    V43.819z M90.013,63.01c0-14.888,12.116-27.004,27.004-27.004h225.032V63.01c0,24.808,20.199,45.007,45.007,45.007h63.009v252.036    H90.013V63.01z M522.076,477.07c0,14.888-12.116,27.004-27.004,27.004H45.007c-14.888,0-27.004-12.116-27.004-27.004V351.052    c0-14.888,12.116-27.004,27.004-27.004h27.004v45.007c0,4.968,4.032,9.001,9.001,9.001h378.054c4.969,0,9.002-4.033,9.004-9.003    v-45.005h27.002c14.888,0,27.004,12.116,27.004,27.004V477.07z" fill="#595959"/>
		<path d="M423.061,414.061c-14.888,0-27.004,12.116-27.004,27.004s12.116,27.004,27.004,27.004s27.004-12.116,27.004-27.004    S437.949,414.061,423.061,414.061z M423.061,450.065c-4.968,0-9.001-4.032-9.001-9.001c0-4.968,4.032-9.001,9.001-9.001    s9.001,4.033,9.001,9.001S428.03,450.065,423.061,450.065z" fill="#595959"/>
	</g>
</g>
<g>
</g>
<g>
</g>
<g>
</g>
<g>
</g>
<g>
</g>
<g>
</g>
<g>
</g>
<g>
</g>
<g>
</g>
<g>
</g>
<g>
</g>
<g>
</g>
<g>
</g>
<g>
</g>
<g>
</g>
</svg>
