<?xml version="1.0" encoding="iso-8859-1"?>
<!-- Generator: Adobe Illustrator 19.0.0, SVG Export Plug-In . SVG Version: 6.00 Build 0)  -->
<svg xmlns="http://www.w3.org/2000/svg" xmlns:xlink="http://www.w3.org/1999/xlink" version="1.1" id="Layer_1" x="0px" y="0px" viewBox="0 0 512 512" style="enable-background:new 0 0 512 512;" xml:space="preserve" width="512px" height="512px">
<g>
	<g>
		<path d="M469.333,115.2H435.2V55.467c0-23.564-19.102-42.667-42.667-42.667H119.467C95.903,12.8,76.8,31.902,76.8,55.467V115.2    H42.667C19.103,115.2,0,134.303,0,157.867V396.8c-0.006,23.202,18.531,42.156,41.728,42.667l-11.435,22.699    c-6.315,12.65-1.18,28.024,11.47,34.339c3.566,1.78,7.499,2.703,11.485,2.696h405.504c14.138-0.019,25.584-11.496,25.565-25.635    c-0.005-3.957-0.928-7.859-2.696-11.4l-11.349-22.699c23.197-0.51,41.734-19.464,41.728-42.667V157.867    C512,134.303,492.898,115.2,469.333,115.2z M93.867,55.467c0-14.138,11.461-25.6,25.6-25.6h273.067    c14.138,0,25.6,11.461,25.6,25.6V115.2H93.867V55.467z M466.005,478.123v-0.085c-1.563,2.5-4.305,4.017-7.253,4.011H53.248    c-4.713-0.014-8.522-3.846-8.507-8.559c0.004-1.325,0.317-2.631,0.913-3.814l17.493-35.072l4.267-8.533l40.277-80.469h296.619    l40.277,80.64l4.267,8.533l17.493,35.072C467.67,472.478,467.541,475.608,466.005,478.123z M68.267,386.219v-74.752h375.467    v74.752l-26.539-52.992c-1.446-2.87-4.381-4.684-7.595-4.693H102.4c-3.213,0.01-6.149,1.824-7.595,4.693L68.267,386.219z     M494.933,396.8c0,14.138-11.461,25.6-25.6,25.6h-7.509l-1.024-2.048V302.933c0-4.713-3.821-8.533-8.533-8.533H59.733    c-4.713,0-8.533,3.82-8.533,8.533v117.419l-1.024,2.048h-7.509c-14.138,0-25.6-11.461-25.6-25.6V157.867    c0-14.138,11.462-25.6,25.6-25.6h426.667c14.138,0,25.6,11.462,25.6,25.6V396.8z" fill="#595959"/>
	</g>
</g>
<g>
	<g>
		<path d="M375.467,371.2H136.533c-4.713,0-8.533,3.821-8.533,8.533c0,4.713,3.82,8.533,8.533,8.533h238.933    c4.713,0,8.533-3.821,8.533-8.533C384,375.021,380.18,371.2,375.467,371.2z" fill="#595959"/>
	</g>
</g>
<g>
	<g>
		<path d="M392.533,405.333H119.467c-4.713,0-8.533,3.82-8.533,8.533s3.82,8.533,8.533,8.533h273.067    c4.713,0,8.533-3.82,8.533-8.533S397.246,405.333,392.533,405.333z" fill="#595959"/>
	</g>
</g>
<g>
	<g>
		<path d="M426.667,439.467H85.333c-4.713,0-8.533,3.821-8.533,8.533s3.82,8.533,8.533,8.533h341.333    c4.713,0,8.533-3.82,8.533-8.533S431.38,439.467,426.667,439.467z" fill="#595959"/>
	</g>
</g>
<g>
</g>
<g>
</g>
<g>
</g>
<g>
</g>
<g>
</g>
<g>
</g>
<g>
</g>
<g>
</g>
<g>
</g>
<g>
</g>
<g>
</g>
<g>
</g>
<g>
</g>
<g>
</g>
<g>
</g>
</svg>
