<?xml version="1.0" encoding="iso-8859-1"?>
<!-- Generator: Adobe Illustrator 19.0.0, SVG Export Plug-In . SVG Version: 6.00 Build 0)  -->
<svg xmlns="http://www.w3.org/2000/svg" xmlns:xlink="http://www.w3.org/1999/xlink" version="1.1" id="Capa_1" x="0px" y="0px" viewBox="0 0 403.521 403.521" style="enable-background:new 0 0 403.521 403.521;" xml:space="preserve" width="512px" height="512px">
<g>
	<g>
		<path d="M341.261,63.041c-7.168-7.168-18.432-7.68-26.624-1.536l-112.128,87.552c-4.096,3.584-7.168,8.704-7.68,13.824    c-0.512,5.632,1.536,11.264,5.12,15.36l5.632,6.144l-71.68,56.832c0.512-64.512,4.608-145.408,19.968-202.752    c2.56-8.704,0.512-17.92-4.608-25.088c-5.12-7.168-13.312-11.776-22.528-12.288l-22.016-1.024    c-15.872-1.024-29.184,10.24-31.232,25.6c-6.656,47.104-19.456,169.472,0.512,281.6c1.024,5.12,3.072,10.24,6.656,14.336    c-31.232,38.4-30.208,75.264-30.208,76.8c0,2.56,2.56,5.12,5.12,5.12c3.072,0,5.12-2.56,5.12-5.12    c0-0.512-1.024-34.816,27.648-69.632c2.56,1.536,4.608,2.56,7.68,3.072c2.56,1.024,5.632,1.024,8.192,1.024    c6.656,0,13.312-2.048,18.432-6.656c7.68-6.144,11.776-14.848,11.776-25.088c0-3.584,0-7.168,0-11.264l203.776-165.888    c9.216-7.168,14.336-17.92,14.848-29.696C353.549,82.497,349.453,71.233,341.261,63.041z M124.173,301.121    c0,6.656-2.56,12.288-7.68,16.384c-5.12,4.096-11.776,5.12-17.92,3.584c-3.072-1.024-5.632-2.048-7.68-4.096    c-3.584-3.072-5.632-7.168-6.656-11.776C64.269,194.625,77.581,73.793,83.725,27.201c1.536-9.728,9.728-16.896,19.456-16.896    c0.512,0,0.512,0,1.024,0l22.016,1.024c6.144,0.512,11.264,3.072,14.848,8.192c3.584,4.608,4.608,10.752,3.072,16.384    C123.149,114.241,122.637,235.585,124.173,301.121z M331.533,115.777L133.901,276.545c0-7.168,0-14.336,0-22.016l81.92-65.536    c1.024-1.024,1.536-2.048,2.048-3.584c0-1.536-0.512-2.56-1.024-3.584l-8.704-10.24c-2.048-2.048-2.56-4.608-2.56-7.68    c0-2.56,1.536-5.12,3.584-6.656l112.128-87.552c4.096-3.072,9.728-2.56,13.312,1.024c6.144,6.144,9.216,14.848,9.216,23.552    C342.285,102.465,338.189,110.657,331.533,115.777z" fill="#595959"/>
	</g>
</g>
<g>
	<g>
		<circle cx="104.205" cy="296.513" r="7.68" fill="#595959"/>
	</g>
</g>
<g>
</g>
<g>
</g>
<g>
</g>
<g>
</g>
<g>
</g>
<g>
</g>
<g>
</g>
<g>
</g>
<g>
</g>
<g>
</g>
<g>
</g>
<g>
</g>
<g>
</g>
<g>
</g>
<g>
</g>
</svg>
