<?xml version="1.0" encoding="iso-8859-1"?>
<!-- Generator: Adobe Illustrator 17.1.0, SVG Export Plug-In . SVG Version: 6.00 Build 0)  -->
<!DOCTYPE svg PUBLIC "-//W3C//DTD SVG 1.1//EN" "http://www.w3.org/Graphics/SVG/1.1/DTD/svg11.dtd">
<svg xmlns="http://www.w3.org/2000/svg" xmlns:xlink="http://www.w3.org/1999/xlink" version="1.1" id="Capa_1" x="0px" y="0px" viewBox="0 0 511.65 511.65" style="enable-background:new 0 0 511.65 511.65;" xml:space="preserve" width="512px" height="512px">
<g>
	<path d="M510.876,366.531c-0.013-0.075-0.026-0.15-0.041-0.226l-31.318-158.657c-0.024-0.123-0.061-0.24-0.09-0.36   c0.201-2.419,0.308-4.865,0.308-7.335c0-48.498-39.456-87.954-87.955-87.954c-30.81,0-57.966,15.927-73.68,39.977h-38.252v-16.178   c0-10.424-6.685-19.313-15.991-22.614V87.825c0-4.418-3.582-8-8-8s-8,3.582-8,8v25.358c-9.306,3.302-15.991,12.19-15.991,22.614   v16.178h-38.205c-6.171-9.48-14.135-17.724-23.581-24.291c-14.764-10.262-32.104-15.686-50.146-15.686   c-48.498,0-87.954,39.456-87.954,87.954c0,2.403,0.101,4.783,0.291,7.138c-0.05,0.184-0.102,0.367-0.14,0.557L0.815,366.305   c-0.015,0.075-0.028,0.15-0.041,0.226C0.26,369.591,0,372.727,0,375.852c0,30.863,25.109,55.973,55.973,55.973   c19.92,0,38.497-10.722,48.455-27.939l68.062-115.979h166.67l68.037,115.936c9.983,17.26,28.56,27.982,48.48,27.982   c30.863,0,55.973-25.109,55.973-55.973C511.65,372.727,511.39,369.591,510.876,366.531z M247.868,135.798   c0-4.406,3.584-7.991,7.991-7.991s7.991,3.585,7.991,7.991v16.178h-15.981V135.798z M119.936,127.999   c29.846,0,56.158,17.954,67.033,45.741c1.61,4.114,6.25,6.144,10.365,4.534c4.093-1.602,6.119-6.201,4.557-10.299h107.954   c-3.883,9.916-6.019,20.702-6.019,31.978c0,16.771,4.739,33.081,13.705,47.167c2.372,3.728,7.318,4.826,11.044,2.454   c3.728-2.372,4.826-7.317,2.454-11.044c-7.329-11.515-11.203-24.854-11.203-38.577c0-39.676,32.278-71.954,71.954-71.954   s71.955,32.278,71.955,71.954s-32.279,71.954-71.955,71.954c-14.663,0-28.767-4.38-40.788-12.668   c-3.639-2.509-8.62-1.592-11.127,2.045c-2.349,3.408-1.694,7.995,1.389,10.623H170.46c22.622-15.931,37.431-42.244,37.431-71.954   c0-4.418-3.582-8-8-8s-8,3.582-8,8c0,39.676-32.279,71.954-71.955,71.954s-71.954-32.278-71.954-71.954   S80.26,127.999,119.936,127.999z M90.604,395.831c-7.133,12.333-20.403,19.994-34.631,19.994C33.932,415.825,16,397.893,16,375.852   c0-2.204,0.18-4.412,0.535-6.565l25.408-128.713c14.698,28.105,44.14,47.333,77.993,47.333c2.072,0,4.126-0.077,6.163-0.219   c0.589,0.138,1.201,0.219,1.833,0.219h26.007L90.604,395.831z M455.677,415.825c-14.228,0-27.498-7.661-34.656-20.037   l-63.309-107.881h26.073c0.633,0,1.247-0.081,1.837-0.22c2.042,0.141,4.095,0.22,6.158,0.22c33.816,0,63.231-19.186,77.945-47.241   l25.389,128.621c0.355,2.153,0.535,4.361,0.535,6.565C495.65,397.893,477.718,415.825,455.677,415.825z" fill="#595959"/>
	<path d="M239.868,247.93h31.981c4.418,0,8-3.582,8-8s-3.582-8-8-8h-31.981c-4.418,0-8,3.582-8,8S235.449,247.93,239.868,247.93z" fill="#595959"/>
	<path d="M95.95,207.953c4.418,0,8-3.582,8-8s-3.582-8-8-8H71.963c-4.418,0-8,3.582-8,8s3.582,8,8,8H95.95z" fill="#595959"/>
	<path d="M143.922,207.953h23.986c4.418,0,8-3.582,8-8s-3.582-8-8-8h-23.986c-4.418,0-8,3.582-8,8S139.504,207.953,143.922,207.953z   " fill="#595959"/>
	<path d="M119.936,255.926c4.418,0,8-3.582,8-8v-23.986c0-4.418-3.582-8-8-8s-8,3.582-8,8v23.986   C111.936,252.344,115.518,255.926,119.936,255.926z" fill="#595959"/>
	<path d="M119.936,183.967c4.418,0,8-3.582,8-8V151.98c0-4.418-3.582-8-8-8s-8,3.582-8,8v23.986   C111.936,180.385,115.518,183.967,119.936,183.967z" fill="#595959"/>
	<path d="M367.794,239.934c8.82,0,15.996-7.175,15.996-15.995c0-8.82-7.176-15.996-15.996-15.996s-15.995,7.175-15.995,15.996   C351.799,232.759,358.975,239.934,367.794,239.934z" fill="#595959"/>
	<path d="M415.767,239.934c8.82,0,15.996-7.175,15.996-15.995c0-8.82-7.176-15.996-15.996-15.996s-15.996,7.175-15.996,15.996   C399.771,232.759,406.947,239.934,415.767,239.934z" fill="#595959"/>
	<path d="M367.794,191.962c8.82,0,15.996-7.175,15.996-15.995s-7.176-15.995-15.996-15.995s-15.995,7.175-15.995,15.995   S358.975,191.962,367.794,191.962z" fill="#595959"/>
	<path d="M415.767,191.962c8.82,0,15.996-7.175,15.996-15.995s-7.176-15.995-15.996-15.995s-15.996,7.175-15.996,15.995   S406.947,191.962,415.767,191.962z" fill="#595959"/>
</g>
<g>
</g>
<g>
</g>
<g>
</g>
<g>
</g>
<g>
</g>
<g>
</g>
<g>
</g>
<g>
</g>
<g>
</g>
<g>
</g>
<g>
</g>
<g>
</g>
<g>
</g>
<g>
</g>
<g>
</g>
</svg>
