<?xml version="1.0" encoding="iso-8859-1"?>
<!-- Generator: Adobe Illustrator 19.0.0, SVG Export Plug-In . SVG Version: 6.00 Build 0)  -->
<svg xmlns="http://www.w3.org/2000/svg" xmlns:xlink="http://www.w3.org/1999/xlink" version="1.1" id="Layer_1" x="0px" y="0px" viewBox="0 0 512 512" style="enable-background:new 0 0 512 512;" xml:space="preserve" width="512px" height="512px">
<g>
	<g>
		<path d="M226.585,121.192l-0.085-2.089l-34.339-56.559V0h-64.81v62.543l-34.339,56.559L78.75,471.165L78.743,512h162.025v-40.671    L226.585,121.192z M143.553,16.203h32.405v40.506h-32.405V16.203z M140.011,72.911h39.49l29.512,48.608h-98.515L140.011,72.911z     M108.473,137.722h102.566l13.192,325.671H95.281L108.473,137.722z M224.566,495.797H94.946v-16.203h129.62V495.797z" fill="#595959"/>
	</g>
</g>
<g>
	<g>
		<rect x="153.276" y="299.747" width="16.203" height="16.203" fill="#595959"/>
	</g>
</g>
<g>
	<g>
		<rect x="120.871" y="299.747" width="16.203" height="16.203" fill="#595959"/>
	</g>
</g>
<g>
	<g>
		<rect x="185.681" y="299.747" width="16.203" height="16.203" fill="#595959"/>
	</g>
</g>
<g>
	<g>
		<path d="M373.089,0c-13.401,0-24.304,10.903-24.304,24.304h-41.586V8.101h-48.608v132.651l22.684,63.19V512h48.608V201.121    l-22.684-63.19v-0.21h41.586c0,13.401,10.903,24.304,24.304,24.304c13.401,0,24.304-10.903,24.304-24.304V43.426    c0-1.986,0.727-3.897,2.047-5.382L433.257,0H373.089z M313.68,203.942v291.855h-16.203V201.121l-22.684-63.19V24.304h16.203    v116.449L313.68,203.942z M348.785,121.519h-41.586v-16.203h41.586V121.519z M348.785,89.114h-41.586V71.291h41.586V89.114z     M348.785,55.089h-41.586V40.506h41.586V55.089z M387.329,27.28c-3.958,4.455-6.139,10.189-6.139,16.146v94.296    c0,4.468-3.634,8.101-8.101,8.101c-4.468,0-8.101-3.634-8.101-8.101V24.304c0-4.468,3.634-8.101,8.101-8.101h24.087L387.329,27.28    z" fill="#595959"/>
	</g>
</g>
<g>
</g>
<g>
</g>
<g>
</g>
<g>
</g>
<g>
</g>
<g>
</g>
<g>
</g>
<g>
</g>
<g>
</g>
<g>
</g>
<g>
</g>
<g>
</g>
<g>
</g>
<g>
</g>
<g>
</g>
</svg>
