<?xml version="1.0" encoding="iso-8859-1"?>
<!-- Generator: Adobe Illustrator 19.0.0, SVG Export Plug-In . SVG Version: 6.00 Build 0)  -->
<svg xmlns="http://www.w3.org/2000/svg" xmlns:xlink="http://www.w3.org/1999/xlink" version="1.1" id="Layer_1" x="0px" y="0px" viewBox="0 0 512 512" style="enable-background:new 0 0 512 512;" xml:space="preserve" width="512px" height="512px">
<g>
	<g>
		<path d="M79.448,318.497C35.64,318.497,0,354.137,0,397.945s35.64,79.448,79.448,79.448c43.808,0,79.448-35.64,79.448-79.448    S123.256,318.497,79.448,318.497z M79.448,459.738c-34.073,0-61.793-27.72-61.793-61.793s27.72-61.793,61.793-61.793    c34.073,0,61.793,27.72,61.793,61.793S113.522,459.738,79.448,459.738z" fill="#595959"/>
	</g>
</g>
<g>
	<g>
		<path d="M301.719,286.637c-50.89-47.073-109.383-74.071-160.477-74.071c-39.056,0-68.115,10.342-86.371,30.738    c-22.873,25.555-19.654,57.179-19.507,58.513c0.539,4.845,4.909,8.323,9.749,7.799c4.845-0.539,8.337-4.903,7.799-9.749    c-0.028-0.248-2.554-25.047,15.115-44.788c14.763-16.495,39.396-24.858,73.214-24.858c99.383,0,218.75,117.375,220.666,192.393    c-7.362,16.201-28.684,51.736-50.801,46.216c-35.185-8.796-128.999-25.881-132.976-26.605c-4.792-0.869-9.392,2.308-10.264,7.107    c-0.872,4.796,2.309,9.392,7.107,10.264c0.968,0.176,97.224,17.705,131.851,26.361c3.119,0.78,6.158,1.141,9.124,1.141    c37.094-0.005,61.811-56.595,62.925-59.193c0.471-1.099,0.713-2.282,0.713-3.477C379.586,383.864,349.749,331.065,301.719,286.637    z" fill="#595959"/>
	</g>
</g>
<g>
	<g>
		<path d="M503.172,459.738H469.37c6.408-43.18,26.186-207.028-29.851-279.073c-28.532-36.686-86.153-79.263-154.133-113.894    c-29.946-15.256-58.448-27.144-82.422-34.379c-27.441-8.281-46.033-9.678-56.844-4.271c-15.178,7.59-23.43,23.512-22.073,42.593    c2.177,30.638,29.311,69.865,85.023,88.437c76.107,25.369,101.745,33.914,109.176,56.21c7.314,21.94-7.659,45.067-7.797,45.277    c-2.705,4.056-1.609,9.538,2.448,12.241c4.058,2.704,9.539,1.607,12.241-2.448c0.819-1.227,19.934-30.422,9.858-60.654    c-10.224-30.669-37.972-39.919-120.342-67.376c-33.454-11.151-70.566-38.732-72.997-72.938    c-0.496-6.987,0.449-19.596,12.36-25.551c11.643-5.825,58.835,5.722,123.354,38.59c65.786,33.513,121.192,74.262,148.212,109.002    c52.24,67.166,31.356,231.569,25.901,268.235h-36.589c-4.875,0-8.828,3.953-8.828,8.828c0,4.875,3.953,8.828,8.828,8.828h44.124    c0.008,0,0.017,0.002,0.025,0.002s0.016-0.002,0.024-0.002h44.103c4.875,0,8.828-3.953,8.828-8.828    C512,463.69,508.047,459.738,503.172,459.738z" fill="#595959"/>
	</g>
</g>
<g>
</g>
<g>
</g>
<g>
</g>
<g>
</g>
<g>
</g>
<g>
</g>
<g>
</g>
<g>
</g>
<g>
</g>
<g>
</g>
<g>
</g>
<g>
</g>
<g>
</g>
<g>
</g>
<g>
</g>
</svg>
