<?xml version="1.0" encoding="iso-8859-1"?>
<!-- Generator: Adobe Illustrator 19.0.0, SVG Export Plug-In . SVG Version: 6.00 Build 0)  -->
<svg xmlns="http://www.w3.org/2000/svg" xmlns:xlink="http://www.w3.org/1999/xlink" version="1.1" id="Capa_1" x="0px" y="0px" viewBox="0 0 428.544 428.544" style="enable-background:new 0 0 428.544 428.544;" xml:space="preserve" width="512px" height="512px">
<g>
	<g>
		<path d="M407.552,376.576v-145.92c11.776-2.56,20.992-12.8,20.992-25.6s-9.216-23.04-20.992-25.6v-13.824    c0-5.632-2.56-11.264-6.656-15.36s-10.24-6.144-15.872-5.632c-13.312,1.024-25.088,3.072-35.84,6.144V49.92    c0-27.136-22.016-49.152-49.152-49.152S250.88,22.784,250.88,49.92v101.888c0,21.504-17.408,38.912-38.912,38.912    c-21.504,0-38.912-17.408-38.912-38.912V131.84c0-27.136-22.016-49.152-49.152-49.152s-49.152,22.016-49.152,49.152v174.08h-9.728    c-3.072,0-5.12,2.048-5.12,5.12v34.304h-7.68c-17.92,0-32.768,13.312-34.816,30.72C7.68,378.624,0,387.84,0,398.592v8.192    c0,3.072,2.048,5.12,5.12,5.12h146.432c3.072,0,5.12-2.048,5.12-5.12v-7.68c0-10.752-7.68-19.968-17.408-22.528    c-2.048-17.408-16.896-30.72-34.816-30.72h-7.68v-34.304c0-3.072-2.048-5.12-5.12-5.12h-8.192v-174.08    c0-21.504,17.408-38.912,38.912-38.912c21.504,0,38.912,17.408,38.912,38.912v19.968c0,27.136,22.016,49.152,49.152,49.152    c27.136,0,49.152-22.016,49.152-49.152V49.92c0-21.504,17.408-38.912,38.912-38.912c21.504,0,38.912,17.408,38.912,38.912v104.448    C230.4,192.256,233.984,327.936,236.032,383.232c0,3.072,0,6.144,0,8.704c0,11.264,9.216,20.48,20.992,20.48h120.32    c4.096,9.216,13.312,15.36,23.552,15.36c14.336,0,26.112-11.776,26.112-26.112C428.032,389.376,419.328,379.136,407.552,376.576z     M133.12,386.304c7.168,0,12.8,5.632,12.8,12.8v3.072H9.728v-3.072c0-7.168,5.632-12.8,12.8-12.8H133.12z M103.936,356.096    c11.776,0,22.016,8.704,24.576,19.968H27.648c2.048-11.264,12.288-19.968,24.576-19.968H103.936z M86.016,316.672v29.184H70.144    v-29.184H86.016z M401.92,189.696c0.512,0,0.512,0,0.512,0c8.704,0,15.36,7.168,15.36,15.872s-7.168,15.872-15.872,15.872    s-15.872-7.168-15.872-15.872C386.56,196.864,393.216,189.696,401.92,189.696z M376.32,402.176H258.048    c-5.632,0-10.752-4.608-10.752-10.24c0-2.56,0-5.632,0-8.704c-1.536-56.832-5.632-180.736,91.136-217.6v13.312    c0,0.512,0,0.512,0,1.024h-6.144c-3.072,0-5.12,2.048-5.12,5.12c0,3.072,2.048,5.12,5.12,5.12h19.968    c3.072,0,5.12-2.048,5.12-5.12c0-3.072-2.048-5.12-5.12-5.12h-4.096c0-0.512,0-0.512,0-1.024v-16.896    c10.752-3.072,23.04-5.632,36.352-6.656c3.072,0,6.144,1.024,8.192,3.072c2.048,2.048,3.584,4.608,3.584,7.68v13.824    c-11.776,2.56-20.992,12.8-20.992,25.6s8.704,23.04,20.992,25.6v145.92C385.024,379.136,376.32,389.376,376.32,402.176z     M402.432,417.536c-8.704,0-15.872-7.168-15.872-15.872s7.168-15.872,15.872-15.872s15.872,7.168,15.872,15.872    S410.624,417.536,402.432,417.536z" fill="#595959"/>
	</g>
</g>
<g>
</g>
<g>
</g>
<g>
</g>
<g>
</g>
<g>
</g>
<g>
</g>
<g>
</g>
<g>
</g>
<g>
</g>
<g>
</g>
<g>
</g>
<g>
</g>
<g>
</g>
<g>
</g>
<g>
</g>
</svg>
