<?xml version="1.0" encoding="iso-8859-1"?>
<!-- Generator: Adobe Illustrator 19.0.0, SVG Export Plug-In . SVG Version: 6.00 Build 0)  -->
<svg xmlns="http://www.w3.org/2000/svg" xmlns:xlink="http://www.w3.org/1999/xlink" version="1.1" id="Layer_1" x="0px" y="0px" viewBox="0 0 512 512" style="enable-background:new 0 0 512 512;" xml:space="preserve" width="512px" height="512px">
<g>
	<g>
		<path d="M256,0C114.841,0,0,114.842,0,256s114.841,256,256,256s256-114.842,256-256S397.159,0,256,0z M256,494.345    C124.575,494.345,17.655,387.424,17.655,256S124.575,17.655,256,17.655S494.345,124.576,494.345,256S387.425,494.345,256,494.345z    " fill="#595959"/>
	</g>
</g>
<g>
	<g>
		<path d="M256,88.276c-92.483,0-167.724,75.24-167.724,167.724S163.517,423.724,256,423.724S423.724,348.484,423.724,256    S348.483,88.276,256,88.276z M256,406.069c-82.748,0-150.069-67.321-150.069-150.069S173.252,105.931,256,105.931    S406.069,173.252,406.069,256S338.748,406.069,256,406.069z" fill="#595959"/>
	</g>
</g>
<g>
	<g>
		<path d="M256,203.034c-29.205,0-52.966,23.76-52.966,52.966s23.761,52.966,52.966,52.966s52.966-23.76,52.966-52.966    S285.205,203.034,256,203.034z M256,291.31c-19.47,0-35.31-15.84-35.31-35.31s15.84-35.31,35.31-35.31s35.31,15.84,35.31,35.31    S275.47,291.31,256,291.31z" fill="#595959"/>
	</g>
</g>
<g>
	<g>
		<path d="M199.821,174.852c-6.882-6.877-18.082-6.879-24.968,0c-3.336,3.335-5.172,7.769-5.172,12.486    c0,4.716,1.836,9.15,5.172,12.485c3.442,3.44,7.964,5.161,12.483,5.161c4.521,0,9.043-1.721,12.485-5.161    c0-0.001,0-0.002,0.002-0.002C206.705,192.938,206.705,181.738,199.821,174.852z" fill="#595959"/>
	</g>
</g>
<g>
	<g>
		<circle cx="158.897" cy="256" r="17.655" fill="#595959"/>
	</g>
</g>
<g>
	<g>
		<circle cx="256" cy="158.897" r="17.655" fill="#595959"/>
	</g>
</g>
<g>
	<g>
		<path d="M337.146,174.852c-3.336-3.333-7.769-5.169-12.485-5.169c-4.715,0-9.151,1.836-12.483,5.169    c-3.336,3.335-5.172,7.769-5.172,12.486c0,4.716,1.836,9.148,5.17,12.483l0.002,0.001c0,0,0,0,0,0.001    c3.334,3.333,7.767,5.169,12.483,5.169c4.716,0,9.149-1.836,12.487-5.171C344.03,192.938,344.03,181.738,337.146,174.852z" fill="#595959"/>
	</g>
</g>
<g>
	<g>
		<path d="M199.823,312.18c0-0.001-0.002-0.002-0.002-0.003c-6.884-6.88-18.084-6.879-24.968,0.001    c-6.883,6.885-6.883,18.085,0,24.971c3.442,3.44,7.961,5.161,12.483,5.161s9.045-1.722,12.487-5.164    C206.702,330.262,206.702,319.064,199.823,312.18z" fill="#595959"/>
	</g>
</g>
<g>
	<g>
		<circle cx="353.103" cy="256" r="17.655" fill="#595959"/>
	</g>
</g>
<g>
	<g>
		<path d="M337.146,312.177c-3.336-3.333-7.769-5.169-12.485-5.169s-9.151,1.836-12.485,5.171c-6.882,6.885-6.882,18.085,0,24.968    c3.334,3.335,7.769,5.171,12.485,5.171c4.716,0,9.149-1.836,12.487-5.173C344.028,330.262,344.028,319.064,337.146,312.177z" fill="#595959"/>
	</g>
</g>
<g>
	<g>
		<circle cx="256" cy="353.103" r="17.655" fill="#595959"/>
	</g>
</g>
<g>
</g>
<g>
</g>
<g>
</g>
<g>
</g>
<g>
</g>
<g>
</g>
<g>
</g>
<g>
</g>
<g>
</g>
<g>
</g>
<g>
</g>
<g>
</g>
<g>
</g>
<g>
</g>
<g>
</g>
</svg>
